<?xml version="1.0" encoding="utf-8"?>
<!-- Generator: Adobe Illustrator 23.0.0, SVG Export Plug-In . SVG Version: 6.00 Build 0)  -->
<svg version="1.1" id="Layer_1" xmlns="http://www.w3.org/2000/svg" xmlns:xlink="http://www.w3.org/1999/xlink" x="0px" y="0px"
	 viewBox="0 0 1100 230" style="enable-background:new 0 0 1100 230;" xml:space="preserve">
<style type="text/css">
	.st0{opacity:0.69;fill:#E4BDA3;stroke:#000000;stroke-miterlimit:10;enable-background:new    ;}
	.st1{fill:none;stroke:#000000;stroke-miterlimit:10;}
	.st2{fill:none;stroke:#000000;stroke-width:0.5;stroke-miterlimit:10;}
	.st3{fill:#F2F2F2;stroke:#000000;stroke-width:0.25;stroke-miterlimit:10;}
	.st4{fill:#303030;stroke:#000000;stroke-width:0.25;stroke-miterlimit:10;}
	.st5{fill:#282828;}
	.st6{opacity:0.16;fill:none;stroke:#000000;stroke-miterlimit:10;enable-background:new    ;}
	.st7{opacity:0.69;fill:#D6B9A3;enable-background:new    ;}
	.st8{opacity:0.69;fill:none;stroke:#000000;stroke-width:0.25;stroke-miterlimit:10;enable-background:new    ;}
	.st9{stroke:#000000;stroke-width:0.25;stroke-miterlimit:10;}
	.st10{opacity:0.69;fill:#E4BDA3;enable-background:new    ;}
	.st11{stroke:#000000;stroke-miterlimit:10;}
	.st12{fill:#E4BDA3;stroke:#000000;stroke-miterlimit:10;}
	.st13{fill:#E4BDA3;}
	.st14{fill:#FFFFFF;stroke:#000000;stroke-miterlimit:10;}
	.st15{fill:none;stroke:#000000;stroke-width:5.000000e-02;stroke-miterlimit:10;}
	.st16{fill:#FFFFFF;stroke:#000000;stroke-width:0.25;stroke-miterlimit:10;}
	.st17{fill:#282828;stroke:#000000;stroke-width:0.25;stroke-miterlimit:10;}
	.st18{fill:#F9FCF3;stroke:#000000;stroke-width:0.25;stroke-miterlimit:10;}
	.st19{fill:none;stroke:#000000;stroke-width:0.15;stroke-miterlimit:10;}
	.st20{fill:none;stroke:#000000;stroke-width:0.25;stroke-miterlimit:10;}
	.st21{fill:none;stroke:#000000;stroke-width:0.1;stroke-miterlimit:10;}
	.st22{fill:none;stroke:#000000;stroke-width:3.000000e-02;stroke-miterlimit:10;}
	.st23{opacity:0.17;fill:#F15757;stroke:#000000;stroke-width:0.25;stroke-miterlimit:10;enable-background:new    ;}
	.st24{opacity:0.94;fill:#6E411F;stroke:#000000;stroke-width:0.25;stroke-miterlimit:10;enable-background:new    ;}
	.st25{opacity:0.69;fill:#793515;stroke:#000000;stroke-miterlimit:10;enable-background:new    ;}
	.st26{opacity:0.93;fill:#6E411F;stroke:#000000;stroke-width:0.25;stroke-miterlimit:10;enable-background:new    ;}
	.st27{opacity:0.35;stroke:#000000;stroke-width:0.25;stroke-miterlimit:10;enable-background:new    ;}
	.st28{opacity:3.000000e-02;fill:none;stroke:#000000;stroke-miterlimit:10;enable-background:new    ;}
	.st29{opacity:2.000000e-02;fill:none;stroke:#000000;stroke-width:3;stroke-miterlimit:10;enable-background:new    ;}
	.st30{opacity:0.88;fill:#6E411F;stroke:#000000;stroke-width:0.5;stroke-miterlimit:10;enable-background:new    ;}
	.st31{opacity:0.71;fill:#6E411F;stroke:#000000;stroke-miterlimit:10;enable-background:new    ;}
	.st32{fill:#793515;stroke:#000000;stroke-miterlimit:10;}
	.st33{fill:#6E411F;stroke:#000000;stroke-miterlimit:10;}
	.st34{opacity:0.63;fill:#6E411F;stroke:#000000;stroke-miterlimit:10;enable-background:new    ;}
	.st35{fill:#FFFFFF;stroke:#FFFFFF;stroke-width:2;stroke-miterlimit:10;}
	.st36{fill:#C995A1;}
	.st37{fill:#FFFFFF;stroke:#C7E9F0;stroke-width:2;stroke-miterlimit:10;}
	.st38{fill:#95193D;}
	.st39{fill:#1EA9E1;}
	.st40{fill:#58003E;}
	.st41{fill:#2A3E98;}
	.st42{fill:#00A9C9;}
	.st43{fill:#D42027;}
	.st44{fill:none;stroke:#95193D;stroke-miterlimit:10;}
</style>
<g>
	
		<image style="display:none;overflow:visible;enable-background:new    ;" width="626" height="417" xlink:href="43C3F500.jpeg"  transform="matrix(0.75 0 0 0.75 314.9896 4.169327e-02)">
	</image>
	<path class="st0" d="M40.9,239.2c-0.2-0.9-0.8-5.6-2.4-12.7c-0.6-2.5-1.6-6.8-3.3-12.2c-1.9-5.9-2.6-6.7-4.9-13.6
		c-1.9-5.8-2.9-8.7-3.1-10.4c-0.2-2-1.2-12.1,5.6-19.6c2.3-2.6,4.8-3.9,5.3-4.2c4.7-2.5,8.8-2,13.6-2c2.7,0,5.2-0.2,7.5-0.5
		c5.1-0.6,9.5-1.9,11.8-2.6c1.8-0.5,2.8-0.8,4.3-1.4c0,0,1.3-0.5,2.4-0.9c3.8-1.5,8.1-3.3,9.2-6.6c0.4-1.3-0.1-3.1-0.9-6.7
		c-1.6-7-3.5-7.1-4-11.7c-0.1-0.9-0.3-3.2-1.6-5.1c-0.7-1-1.4-1.9-1.4-1.9c-1.1-1.2-1.3-1.1-2-1.9c-1.1-1.4-1.6-3.1-1.6-3.1
		c0,0,0,0.1,0.1,0.2c0.3,0.4-0.5-0.7-0.8-1.1c-0.1-0.1-0.1-0.1-0.1-0.1c-0.3-0.4-0.7-0.9-1-1.4c0,0-0.3-0.4-0.5-0.8
		c-1.5-2.7-1.8-5.9-1.8-5.9s-1.9-2.4-4.8-6.2c0.3-0.4,0.8-1.1,1.7-1.6c1.3-0.8,2.6-0.7,3.1-0.7c0,0,0,0,0,0c1.6,0.4,2.8,1.3,4.8,2.9
		c1.4,1.1,2.1,1.7,2.9,2.4c1.6,1.5,1.2,1.3,2.6,2.6c0,0,2.3,2.1,3.1,3.2c0,0,0.1,0.1,0.1,0.1c0.2,0.2,0.4,0.5,2.2,2.4
		c0.7,0.8,0.8,0.9,1,1.1c0.8,1,1.1,1.6,1.6,2.2c0.2,0.3,0.4,0.5,0.5,0.6c0,0,0.4,0.5,1.9,1.7c0,0,2.5,3,3.8,4.7
		c0.4,0.6,1.2,1.4,1.3,1.7c0.2,0.2,0.2,0.3,0.3,0.4c0.1,0.1,0.1,0.1,0.1,0.1c0.2,0.4,2.5,3,3.6,4.6c0.9,1.2,1.5,2.3,1.7,2.7
		c0.7,1.3,0.7,1.6,1.3,2.6c0.6,1,1.6,2.1,1.6,2.1c1.6,1.4,2,1.9,2,1.9c0.8,0.9,1.2,1.9,2,3.8c0.7,1.7,0.6,1.9,1.1,2.9
		c0.8,1.6,1.8,2.6,2.1,2.9c1.2,1.3,2.8,4.2,4.9,11.6c-0.1-2.2,0.3-3.8,0.6-5c0.4-1.6,0.9-2.4,1.1-4.3c0.2-1.8-0.1-1.6,0.1-3
		c0.4-2.8,2-5,2-7.4l0,0c0-1.6,0.7-2.5,1.3-3.3c1.3-1.9,0.7-1.6,2.3-4c1.1-1.6,2-2.7,2.3-3c1.6-2,1.9-4.6,3.8-10.1
		c1.1-3.2,2-5.6,3.7-8.4c1.2-2,2.4-3.6,3.6-5.1c1.7-2.3,3.3-4.1,4.4-5.3c1.6-1.3,2.8-2.5,3.8-3.4c1.9-1.8,2.5-2.5,3.7-3
		c1.3-0.6,4-1.3,4.9-0.1c0.6,0.9,0.2,2.6-1,4.1c0.1,0.2,0.1,0.6,0.1,1c-0.1,0.8-0.6,1.3-0.8,1.5c-1,1.2-0.8,1.7-2.2,3.8
		c-0.3,0.4-0.5,0.8-0.8,1.1c-1,1.2-2,2.2-2.1,2.2c-0.8,0.8-2,2.4-3.7,6.3c-0.2,0.7-0.4,1.4-0.7,2.1c-0.1,0.4,0.8,0.3-0.4,1.2
		s1.5-2.1,3.5-1.9c0.4,0,1.2,0.1,1.5,0.6c0.9,1.4-2.3,5.3-3,6.1c-0.9,1-1.2,1.2-1.4,1.9c0,0-0.6,1.7-1.2,2.1l0,0l0,0
		c-0.6,1.1-1,2-1.3,2.7c-0.9,2-1.1,2.8-1,3.5c0,0.3,0.1,0.6,0.2,1.2c0,0,0.7,1.1,0.8,2.4c0.2,2.4,2.3,3.9,5.3,6.2
		c3.2,2.4,6.4,4.8,11.1,5.3c3.1,0.4,3.1-0.6,9.3-1.3c7.8-0.9,8.7,0.4,14.7-0.9c4.6-1,4.5-1.9,8-2.2c1.6-0.2,6.9-0.6,11.6,2.2
		c4.5,2.7,6.1,7.1,8,12.4c2.7,7.4,2.3,13.5,2.2,15.1c-0.4,4.7-1.5,6.5-2.7,11.1c-1.2,4.8-1.5,8.4-1.3,23.9
		c0.3,21.1,0.8,20.9,0.4,22.7C201.6,268,44.8,258.2,40.9,239.2z"/>
	<path class="st0" d="M115.8,139.1c-1.5,0.1-1.9,0.2-9.3,0.9c-0.5,0.1-2.9,0.6-3.5-0.4c-0.1-0.1-0.1-0.1-0.2-0.4
		c-0.4-0.7-0.7-1.2-1-1.7c-1.8-2.6-2.6-3.9-3.6-5c-1.2-1.4-1.4-1.4-2.4-2.7c-0.6-0.8-0.5-0.8-1.6-2.3c-1.2-1.7-1.7-2.3-2.2-2.7
		c-0.7-0.7-0.8-0.6-1.4-1.2c-1.2-1.2-1.5-1.9-2.6-3.4c-0.3-0.4-0.2-0.3-2.6-2.9c-2.3-2.5-2.2-2.4-3.1-3.5c-1.8-2-2.8-2.9-3.3-3.4
		c-1.3-1-2.2-1.2-2.8-2.4c-0.4-0.8-0.6-1.9-0.6-2c-0.1-0.8-0.1-1.5-0.1-1.7c0.1-2.6-1.5-5-1.7-8.7c-0.1-1.3,0-1.3,0.3-3.7
		c0.4-4.3-0.1-6.5-0.3-9.9c-0.1-3.2,0.4-6.1,1.3-11.7c1.2-7.2,1.9-10.8,3.8-13.1c0.8-0.9,1.9-1.9,3.2-4c1.1-1.7,1.1-2.4,2.3-3.5
		c0.8-0.8,1.4-1.1,1.7-1.9c0.3-1.2-0.6-2.1-0.2-2.5c0.3-0.3,1.3-0.3,1.7,0c0,0,0.1,0,0.1,0c0.4,0,0.6-1.3,0.7-1.7
		c0.8-2.9,9.6-3.4,10.2-3.4c2.1-0.1,2.2,0.1,3.4-0.2c3-0.7,3.4-2.4,5.6-2.5c1.1,0,0.8,0.4,4.2,1.4c0.9,0.3,2,0.6,4.1,1.1
		c4,1,3.8,0.9,4.3,1.1c2.4,1.2,3.9,3.4,4.5,4.4c0.1,0.2,1,1.9,1,1.9l1.7,0.8c0,0-0.2,2.2-0.2,2.4c-0.1,1.7,0.8,4.8,3,7.8
		c3.1,4.3,5.3,3.6,6.6,7.1c0.6,1.5,0.3,2,1.2,4.6c0.8,2.3,1.4,3,2.1,4.8c1.1,2.7,0.6,3.1,1.7,7.7c0.3,1.3,0.4,1.4,0.8,2.8
		c0.6,2.5,1,4.5,1.1,5.1c0,0,0.2,1.3,0.8,6.6c0,0-0.3,2.9-0.5,5.9c-0.1,1.8-0.1,2.8-0.8,3.7c-0.5,0.7-1.7,1.8-1.7,1.8
		s-2.8,3.4-4.7,6.2c-1.3,2-2.6,3.9-3.8,6.8c-1.9,4.6-2.9,8.4-2.9,8.4c-0.3,1.3-0.6,2.5-1.5,3.8c-0.9,1.2-1.9,1.9-3.3,2.8
		c-1.1,0.7-2.5,1.7-4.5,2.2C119.1,139.3,118.7,139,115.8,139.1z"/>
	<path class="st1" d="M86.7,152.6c3.2,4.1,5.1,7.7,6.2,10.2c2.8,6.2,1.7,7.5,4.9,14.7c1.8,4,2.9,5.3,3.1,8.4
		c0.2,3.1-0.8,3.5-1.6,8.2c-0.8,5.5,0.3,6.2-0.4,13.1c-0.2,2.1-0.3,1.6-1.1,6.9c-1.1,7.1-0.9,7.4-1.3,9.8c-0.9,4.6-2.2,5.7-6.7,15.1
		c-3.1,6.5-4.6,9.8-4.4,10.7c2.8,13,83.6,9.1,84.7-0.7c0.1-0.9-0.5-2.2-1.8-4.9c-2.1-4.4-4.4-7.1-6-9.1c-4.2-5.2-6.6-10-8-12.9
		c-2.6-5.3-1.6-5.1-5.8-14.9c-2.6-6.2-3.3-6.9-4.9-11.6c-0.9-2.4-1.6-5-1.6-5c-0.2-0.7-0.6-2.1-1.5-5.6c-1.3-5.1-1.9-7.7-2.2-9.8
		c-1.1-8,1.1-8.1-0.2-14.2c-0.8-3.4-2.2-6.8-0.9-9.1c0.2-0.3,1-1.6,1.8-3.6c0.4-0.9,0.6-1.6,0.7-1.9c0.4-1.3,0.5-2.3,0.7-3.3
		c0.2-1.4,0.4-3.2,0.6-5.4"/>
	<path class="st1" d="M117.6,165.7c0.5,0.9,1.1,2.4,1.6,4.2c0.3,1.4,0.4,2.6,0.4,5.3c0.1,3.9-0.1,4.7,0,6.7c0.1,2.8,0.4,4.8,0.9,7.8
		c0.8,4.8,1.7,8.1,2.2,10c2.1,8.3,0.2,8.6,2,19.1c1.4,8.7,3.1,10.6,3.1,17.7c0,1.6-0.1,3.3,0,6.8c0.1,4.6,0.3,8.3,0.6,10.8"/>
	<path class="st1" d="M117.3,165.7c-0.9-2.4-1.8-4.8-2.8-7.2"/>
	<path class="st2" d="M99.3,159.9c-0.4-0.8-1-2.1-1.4-3.7c-0.5-2.1-0.3-3.4-0.4-5.1c-0.1-1.9-0.9-3.9-2.3-7.8
		c-1.2-3.1-1.1-2.3-3.1-7.2c-1.6-3.8-2-5.3-3.6-7.3c-1.1-1.4-1.6-2.2-2.6-2.9c-1.3-1-2.2-1.2-2.8-2.3c-0.3-0.7-0.7-1.9-0.1-2.6
		c0.8-1,3.1-0.5,4.4,0.3c0.7,0.4,1.2,0.9,1.4,1.2"/>
	<path class="st2" d="M77,108.4c-2.8-1.4-5.3-1.2-6.2-0.1c-0.6,0.9-0.2,2.2-0.1,2.4c0.6,1.7,2,1.6,4.2,4.2c0.5,0.5,0.7,0.9,1.7,2
		c0.9,1.1,1.1,1.2,1.4,1.7c0.9,1.4,1.3,2.6,1.4,3.1c0.7,2.3,2.3,3.3,4.1,5.3c1.3,1.5,2.8,5.1,5.7,12.3c1.1,2.8,1.8,5.6,1.8,5.6
		c0.6,2.1,0.8,3,1.3,4.7c0.7,2.2,1.5,4,2,5.1"/>
	<path class="st2" d="M93.9,126.6c-1.7-1.3-3.4-2.7-5.1-4"/>
	<path class="st2" d="M89,151.9c-0.2-0.7-0.5-1.9-0.9-3.2c-0.7-2.6-0.7-2.9-1.2-4.9c-0.7-2.7-1.4-4.6-1.6-5.1
		c-0.4-1-0.8-2.1-1.4-3.6c-0.8-1.8-1.5-2.9-2.1-4c-2.3-4.1-1.9-5.1-3.9-8.7c-1.2-2.2-1.6-2.1-3.3-5c-1.3-2.2-2.3-4.1-2.8-5.3"/>
	<path class="st2" d="M81.8,134.2c-0.1-1.4-0.4-3.3-1.6-5.1c-0.4-0.7-0.8-1-1.4-1.9c-0.9-1.1-2.1-2.7-3.5-4.8"/>
	<path class="st1" d="M70.4,112c0.5,1.3,0.9,2.5,1.2,3.3c0.6,2,0.8,2.6,1.3,3.6c0.6,1.1,1.2,1.9,1.6,2.4"/>
	<path class="st2" d="M138.4,113.3c1.9-1.7,1.5-1.8,4.3-4.6c1.1-1.1,1.7-1.6,2.4-2.2c1.4-1.1,2.1-1.4,3.2-2.6
		c0.7-0.7,1.2-1.4,1.4-1.8c0.8-0.8,1.9-1,2.9-0.6c1.3,0.6,1.5,2,1.5,2.1c0,0.8-0.1,1.4-0.1,1.4c0,0,0.1-1.4,0.1-1.4
		c0,0,0,0.3-0.1,0.4c-0.3,0.2-0.9-0.1-1.1-0.2c-1.3-0.5-3.5,1.4-4.7,2.3c-0.9,0.8-2.3,2.1-3.5,4c0,0-2.3,2-2.3,2l0,0l0,0
		c0,0-1.4,1.6-2.7,3c-1.2,1.3-1.1,1.2-2.9,2.9c-1.2,1.3-1.8,1.9-2.6,2.8c-0.8,0.9-1.4,1.6-2,2.6c-1.4,2.2-1.9,4-2,3.9
		c-0.1,0,1.7-5,3.6-9.1c0.2-0.4,0.4-0.8,0.8-1.4C135.9,115.3,136.9,114.7,138.4,113.3z"/>
	<path class="st2" d="M125.3,145.9c2-4.3,3.9-6.5,5.4-7.9c0.4-0.3,0.7-0.6,1.2-1.1c1.6-1.7,2.4-3.5,3.8-5.3c0.2-0.2,0.4-0.6,0.8-0.9
		c0.7-0.6,1.2-0.7,2.7-2.3c1.4-1.5,1.8-2.1,2.5-2.9c0,0,0.4-0.4,0.8-0.9c1.5-1.4,4.3-2.9,4.7-3.1"/>
	<polyline class="st1" points="148.7,122 148.7,122 148.7,122 	"/>
	<path class="st2" d="M281.1,110.8"/>
	<path class="st1" d="M96.3,118.7"/>
	<path class="st2" d="M131.1,125.4c-1.1,2.8-1.3,3.5-1.2,3.5c0.3,0.1,1.9-3.8,5.5-8c0.7-0.8,1.1-1.3,1.9-2.3c1.5-2,2.4-3.6,2.9-4.7
		c0.3-0.6,1-2.1,1.9-2.9c0.1-0.1,0.6-0.5,1.3-1.2c0.1-0.1,0.3-0.3,0.5-0.5c1.2-1.2,2.3-2.7,2.3-2.7c0.9-0.8,2.1-1.8,3.8-2.3
		c1.4-0.5,2.1-0.4,2.6-0.2c0.4,0.2,0.8,0.4,1,0.6"/>
	<path class="st3" d="M121.8,81.2c-0.1-0.3,0.3-0.7,0.8-1.1c0.5-0.4,0.9-0.7,1.3-0.9c0.1-0.1,0.6-0.3,1.2-0.5
		c0.2-0.1,0.6-0.2,1.2-0.3c0.4-0.1,1.7-0.2,3.5,0.1c0,0,0.9,0.2,1.9,0.5c0,0,0.9,0.3,1.2,0.8c0,0.1,0.1,0.1,0.1,0.3
		c0.1,0.3,0,0.6,0,0.6c0,0.1,0,0.2-0.1,0.2c-0.1,0.1-0.2,0-0.2,0c-0.2,0-0.4,0.1-0.6,0.1s-0.5,0.1-1.1,0.2c-1.4,0.2-3.7,0-3.7,0
		c-2.8,0-3.4-0.4-4-0.1c-0.1,0-0.5,0.2-1.2,0.2C122.2,81.4,121.9,81.4,121.8,81.2z"/>
	<path class="st4" d="M125.6,79.3c-0.1,0.2-0.2,0.3-0.2,0.3c-0.2,0.5-0.3,1.3,0.1,1.5c0.2,0.2,0.4,0,1.3,0c0.4,0,0.5,0,1,0.1
		c1.5,0.1,2.3,0.1,2.6-0.3c0-0.1,0-0.4,0-1.2c0-0.5,0-0.6-0.1-0.7c0,0,0,0,0,0c-0.3-0.4-1.1-0.6-1.2-0.6c-0.2,0-0.4,0-1.2,0
		c-1.4,0-1.8,0.1-1.9,0.3C125.9,78.9,125.8,79,125.6,79.3z"/>
	<path class="st2" d="M121,81.8c-0.4-0.5,0.9-2.4,2.6-3.4c0.9-0.5,1.8-0.7,2.3-0.8c1.8-0.4,3.2-0.1,3.7,0.1c1.1,0.3,2,0.4,2.8,0.9
		c0.8,0.5,1.6,1,2.3,1.5c0.4,0.3,0.7,0.5,0.8,0.6c0.2,0.2,0.5,0.4,0.5,0.4c-0.3,0.1-1.1,0.2-2.5,0.2c-1.8,0.1-1.8,0.2-3.3,0.3
		c-0.6,0-1.6,0-3.8,0c-2.8,0-3-0.1-3.7,0.1C121.6,81.8,121.2,82,121,81.8z"/>
	<path d="M126.4,79.4c-0.2,0.3-0.2,0.7,0.1,1c0.3,0.3,0.7,0.2,0.9,0c0.2-0.2,0.4-0.6,0.3-0.9c-0.2-0.4-0.6-0.4-0.8-0.4
		C126.8,79.1,126.6,79.2,126.4,79.4z"/>
	<path class="st3" d="M127.4,79.6"/>
	<path class="st5" d="M94.1,77.5c1.8-0.3,2.7,0,3.3,0.4c0.4,0.3,0.9,0.8,1,0.7c0.1-0.1-0.1-0.3-0.1-0.7c0-0.6,0.3-1,0.2-1.1
		c-0.1-0.1-0.9,0.8-0.8,0.6c0.7-1.4,0-0.7-0.2-0.7c-0.1,0-0.4,0.6-0.6,0.6c-0.2,0,0-0.6-0.3-0.7c-0.2-0.1,0.3,0,0,0
		c-0.3,0-0.8-1.1-1-1.1c-0.3,0-0.6,1.7-0.8,1.7c-0.1,0,0-0.7-0.1-0.7C94.7,76.3,94.3,77.6,94.1,77.5c-0.1,0,0.8-2,0.6-2.1
		c-0.2-0.1-1.5,2-1.5,2c-0.1,0,0.5-1.2,0.5-1.2c0,0-0.3,0.6-0.6,0.5c0,0-0.1,0-0.5-0.7c-0.1,0.2-0.3,0.5-0.6,0.8
		c-0.2,0.2-0.4,0.5-0.5,0.4c-0.2-0.1,0.2-1.1,0.1-1.1c-0.1,0-0.6,1.2-0.7,1.2c-0.1,0,0.3-0.9,0.1-1.1c-0.1-0.1-0.5,0.1-0.6,0.3
		c-0.3,0.4-0.1,0.9-0.1,0.9c0,0-0.2-1.1-0.5-1.1c-0.3,0-0.5,1-0.9,0.9c-0.3,0-0.3-0.8-1-1.2c-0.1,0-0.2-0.1-0.2-0.1
		c-0.2,0.1,0.4,0.9,0.2,1.1c-0.1,0.1-0.5,0-0.7-0.2c-0.2-0.1-0.3-0.2-0.3-0.2c-0.1,0,0,0.3,0,0.3c0.2,1.4,0.3,2.1,0.3,2.1
		c0,0-0.4-1-1-1.5c-0.1-0.1-0.1-0.1-0.2-0.1c-0.2,0.1-0.2,0.8,0.1,1c0.3,0.2,0.6,0,0.9,0.2c0.2,0.2,0.1,0.4,0.2,0.4
		c0.2,0,0.7-2.1,0.8-2.1c0,0-0.1,0.4,0,0.6c0.3,0.4,1.4-0.5,3-0.3c0.6,0.1,0.7,0.2,1.4,0.3C93,77.8,93.7,77.7,94.1,77.5
		c-0.1,0-0.2,0.1-0.3,0.1c-1.5,0.5-2,0.6-2.9,1.1c-0.3,0.1-0.4,0.2-0.6,0.3c-0.6,0.4-1,1-1.2,1.3c-0.1,0.1-0.3,0.3-0.4,0.6
		c-0.1,0.3,0,0.5-0.1,0.7c-0.1,0.2-0.5,0.2-1.2,0.1c-1.7-0.1-0.9,0.1-2.4,0c-0.3,0-0.6,0-0.9,0.2c-0.2,0.2-0.4,0.6-0.3,0.7
		c0.3,0.3,2.5-0.8,2.4-1.2c-0.1-0.4-3.2,0.2-3.3-0.1c0-0.2,0.7-0.5,0.8-0.5c0.5-0.2,0.9-0.2,1.3-0.2c1.1,0,2.1,0.3,2.1,0.4
		c0,0.1-1.1,0.1-2.1-0.4c-0.6-0.3-1-0.9-1.2-1.3c1.6,0.7,2.1,0.8,2.1,0.7c0.1-0.2-1.1-1.2-1-1.4c0.1-0.2,0.7,0.1,0.9,0.2
		c0.9,0.3,2.3,0.3,4.8-1.3"/>
	<path class="st6" d="M87.8,84.3c0.5,0.3,1.3,0.7,2.3,1c0.5,0.2,2.2,0.6,5.7,0.2c0.8-0.1,1.7-0.3,4.8-1c4.2-1,4.9-0.8,5.2-1.3
		c0.7-1.6-3.2-5.1-6.3-6.8c-1.6-0.9-3.3-1.8-5.7-1.7c-2.3,0.2-4,1.3-4.8,1.8"/>
	<path class="st7" d="M104.5,72.6c0.3,0.6-0.2,1,0.1,1.8c0.4,0.9,1.5,0.9,2.5,1.7c1.4,1.1,2,2.6,2.2,3.2c0.9,2.6-0.7,3.4-0.3,7.5
		c0.3,2.9,0.4,2.9,0,3.7c-1.3,2.4-5.6,1.8-7,4.3c-0.2,0.3-1,2-1,2l0,0c0,0-0.6,1.9,0,2.7c0.1,0.1,0.3,0.3,1,0.4
		c1.3,0.3,2.3,0.1,2.7,0.1c2.1-0.2,4.5,0.8,4.6,1.7c0,0.5-0.9,1.1-1.6,1.3c-2.1,0.7-3.1-1-5.5-0.7c-1.7,0.2-2.2,1.2-3.2,0.8
		c-1-0.4-1.5-1.9-1.5-3c0-1.9,1.2-3.3,2.8-5.2c2.1-2.4,2.9-2.3,3.5-3.8c0.7-1.6-0.1-2,0.7-4.3c0.6-2,1.4-2.3,1.3-3.7
		c0-1.3-0.8-2.3-1.5-3.2c-1.7-2.1-2.9-1.9-4.8-3.7c-2.1-1.9-3.4-4.7-2.8-5.3c0.4-0.5,1.5,0.7,4.3,1
		C102.8,72.2,104.1,71.9,104.5,72.6z"/>
	<path d="M106.9,98.9c-0.8-0.4-2-0.2-2-0.2s-0.4,1-0.2,1.3c0.2,0.2,0.8-0.3,1.7-0.3c0.2,0,0.4,0.1,0.4,0.1c0.6,0.2,0.9,0.4,0.9,0.3
		C107.8,100,107.5,99.2,106.9,98.9z"/>
	<path class="st8" d="M118.3,73.9c-0.6,3.9-1,7.3-1.2,10c-0.2,2.3-0.3,4.6,0.5,7.3c0.5,1.8,0.8,2.9,1.9,3.8c0.6,0.5,1.5,0.9,2.4,2
		c0.3,0.3,0.5,0.7,0.7,1.3c0.1,0.3,0.2,0.9-0.1,1.5c-0.1,0.1-0.4,0.8-1,1c-0.6,0.2-0.9-0.3-1.9-0.5c-0.7-0.1-0.7,0.1-2.4,0.2
		c-1.6,0.1-1.5-0.1-2.3,0.1c-0.5,0.1-0.4,0.2-2.1,0.8c-0.2,0.1-0.7,0.2-1.3,0.3c-0.2,0-0.3,0.1-0.6,0.1c-0.9,0.1-1.7-0.1-1.7-0.1
		c-1.1-1.2-1.6-1.5-1.6-1.5c-0.9-0.5-2.1-0.5-3-0.2c-0.5,0.2-0.5,0.4-0.9,0.5c-1.4,0.4-2.8-1.1-2.8-1c0,0,1.3,0.5,1.3,0.6
		c0,0-0.9,0-1.3-0.6c-0.7-0.9,0-2.7,0-2.7s1.1-2.6,3-3.2c0.3,0,0.6,0,1-0.3c0.8-0.5,1-1.6,1.1-2.2c0.3-2.2,0.1-4,0-5.2
		c-0.3-4.3,0.8-4.5,0-6.3c-0.8-1.9-2-1.9-3.6-4.3c-1.2-1.7-1.7-3.3-1.9-4.4"/>
	<path class="st9" d="M115.7,100.5c0,0.1,0.5,0.2,0.7,0c0.2-0.2-0.2-0.6-0.1-0.9c0.1-0.3,0.6-0.4,0.8-0.5c1.2-0.3,2.7,0.8,2.5,1.2
		C119.4,100.9,115.7,100.3,115.7,100.5z"/>
	<path class="st9" d="M106,77.4"/>
	<path class="st9" d="M120.5,80.6c0,0-0.3,1-0.3,1c0,0,0.4-0.7,0.6-1.3c0.5-1.3,1.6-1.9,2.8-2.6c3.7-2.1,8.5,0,10.1,0.7
		c0,0,1.7,0.7,2.8,2.4c0.1,0.1,0.1,0.2,0.1,0.3c0,0,0,0.1-0.1,0.3c0,0,0,0,0,0c-0.1,0.3-0.2,0.5-0.1,0.6c0.1,0.3,1.1,0.2,1.1,0.2
		c0-0.1-0.5-0.1-0.6-0.3c0-0.2,0.5-0.3,0.6-0.7c0-0.3-0.6-0.5-0.5-0.7c0.1-0.2,1-0.1,1-0.2c0-0.1-1.6-0.4-1.6-0.6
		c0-0.2,1.2-0.2,1.2-0.3c0-0.2-1.9-0.2-1.9-0.5c0-0.2,1.1-0.4,1.1-0.5c0-0.2-2,0.1-2.1-0.2c-0.1-0.2,1.3-0.7,1.2-0.8
		c-0.1-0.2-2.2,0.6-2.5,0.1c-0.3-0.4,0.8-1.3,0.5-1.7c-0.3-0.3-1.5,0.5-2.2-0.1c-0.3-0.3-0.3-0.6-0.7-0.8c-0.3-0.1-0.4,0.1-1,0.1
		c-0.5,0-0.9-0.1-1.4-0.3c-0.5-0.2-0.6-0.3-0.8-0.2c-0.5,0.1-0.5,0.8-0.8,0.8c-0.3,0-0.3-0.9-0.6-0.9c-0.3,0-0.5,1-0.8,1
		c-0.3,0-0.4-0.6-0.7-0.6c-0.2,0-0.2,0.4-0.4,0.6c-0.4,0.2-0.8-0.2-1-0.1c-0.3,0.2,0.2,1.4,0.1,1.4s-0.4-1.2-0.6-1.2
		c-0.1,0,0,0.3-0.2,0.8c-0.1,0.3-0.2,0.4-0.3,0.8c-0.1,0.3-0.1,0.4-0.1,0.5c-0.1,0.3-0.2,0.2-0.4,0.5c-0.2,0.3-0.1,0.4-0.3,0.5
		c-0.1,0.1-0.2,0.1-0.3,0.2c0,0-0.1,0.1-0.2,0.3c-0.1,0.2-0.1,0.3-0.2,0.5c-0.1,0.3-0.3,0.6-0.3,0.6l0,0l0,0l0,0l0,0l0,0l0,0
		C120.8,80.3,120.5,80.6,120.5,80.6L120.5,80.6z"/>
	<path class="st9" d="M116.9,70.4c0,0.3-0.3,1.8,0.5,2.3c0.3,0.2,0.8,0.3,2.2-0.2c2.5-0.8,3.1-1.4,4.7-1.8c1.1-0.2,0.9,0.1,2.8-0.1
		c2.7-0.2,3.2-0.7,5-0.8c3.6-0.3,5.9,1.6,6.2,1.1c0.2-0.4-1.2-1.7-2.5-2.4c-0.2-0.1-1.2-0.7-2.8-1c-0.9-0.2-1.5-0.2-2.7-0.2
		c-1.8,0-1.8,0.2-3,0.1c-0.9-0.1-1.2-0.3-2.1-0.3c-0.5,0-1.1,0-1.8,0.3c-0.6,0.2-0.6,0.3-1.8,0.9c-0.7,0.3-1.3,0.7-2,0.9
		c-0.7,0.2-1.2,0.3-1.6,0.4"/>
	<path d="M104.3,71.9c0.9-1.7,0.9-2.2,0.7-2.4c-0.3-0.3-0.8,0.2-1.9,0c-0.4-0.1-0.9-0.3-1.8-0.7c-1.2-0.6-1.3-0.8-2-1
		c-0.8-0.3-1.4-0.3-2.3-0.4c-3.4-0.3-3.2-0.7-4.9-0.7c-0.9,0-0.4,0.1-3.6,0.6c-1.6,0.2-1.9,0.2-2.7,0.5c-0.6,0.2-1.7,0.6-2.7,1.6
		c-0.4,0.4-0.8,1-1.5,2.2c-0.5,0.8-0.6,1-0.7,1.3c-0.2,0.8-0.1,1.4-0.1,1.9c0,0.2,0.2,1.2,0.3,1.2c0.2,0-0.1-1.9,1.1-3.4
		c0.3-0.4,0.7-0.7,1.3-1.2c0.8-0.7,1.2-1,1.8-1.2c1.3-0.5,1.9,0.1,4,0c1-0.1,1.4-0.2,2.1-0.3c1.3-0.2,3.3-0.2,6.2,1.2"/>
	<path class="st10" d="M94.4,101.7c-2.1,1.3-3.7,3.6-4.1,4.3c-0.7,1.1-1.2,1.8-1.3,2.8c-0.1,0.5-0.2,1.8,1.8,5.5
		c1.8,3.2,2.2,2.9,2.6,4.4c0.5,2-0.1,2.8,0.7,5.2c0.3,0.8,0.6,1.3,1.2,2.4c1.8,3.3,2.9,5.3,4.2,5.3c0.6,0,1-0.5,1.9-1.5
		c0.5-0.5,1.7-1.8,1.3-2.5c-0.3-0.5-1.2-0.2-1.5-0.8c-0.3-0.5,0-1.4,0.4-1.9c0.6-0.8,1.2-0.7,3.8-1.9c0.4-0.2,1.6-0.7,1.5-1.2
		c0,0,0,0,0,0c-0.1-0.4-1.5-0.4-2.6-0.4c-0.7,0.2-2,0.4-3.6,0c-0.2-0.1-1.1-0.3-2.3-1.2c-1.3-1-1.3-1.4-3.4-4.2c0,0-2.6-3.3-2.3-4.6
		c0-0.1,0-0.1,0-0.1c0.2-0.5,0.8-0.7,1.3-0.8c0.6-0.2,1.2-0.6,1.8-0.8c0.8-0.3,1.7-0.7,2.5-1.1c1.1-0.4,2.7-1.2,5.2-2.5
		c1.3-0.7,1.6-0.9,2.3-1c1.3-0.2,1.9,0.4,4.4,0.7c1.1,0.1,1.6,0.1,1.8-0.3c0.4-0.4,0.1-0.9,0.4-1.8c0.3-0.9,0.9-1.1,0.8-1.4
		c-0.2-0.7-3.5-0.4-5.4-0.3C99.8,102.3,97.9,99.7,94.4,101.7z"/>
	<path class="st1" d="M68.1,162.3c0-1.6,0.2-2.9,0.4-3.8c0.6-2.4,1.7-3.6,1.1-4.7c-0.3-0.5-0.7-0.4-1.4-0.9
		c-1.5-0.9-2.3-1.9-3.4-3.2c-1.1-1.3-2.8-3.4-4-6.4c-0.5-1.2-0.7-2.2-1.2-2.2c-0.5,0-0.8,1.1-1.7,2.7c-0.8,1.5-1.6,2.5-3.3,4.6
		c-2.4,2.9-2.7,2.5-3.2,3.8c-0.4,1,0,0.8-0.4,5.2c-0.3,2.6-0.4,3.1-0.1,4.2c0.3,1,0.7,1.5,0.4,2.1c-0.4,0.8-1.9,1.3-2.8,1
		c-2-0.8-0.5-5.6-1.2-15.4c-0.5-6.5-1.3-11.3-1.3-11.3c-0.7-3.9-1-4.5-1-6.4c0-1.8,0.3-3.3,2.9-10c2.8-7.3,4.3-10.9,5.4-12.4
		c2-2.6,3.8-3.8,4-6.4c0.1-1.6-0.4-2.2-0.7-5.2c-0.2-2.2-0.1-3.5,0-5.6c0.3-6.9,0.4-10.4-0.3-14.6c-0.6-3.1-1.2-4.4-0.6-6.4
		c0.2-0.6,0.5-1.2,3.4-4.7c2.9-3.4,3.6-3.9,4.7-5.6c1.3-2,1.8-3.6,2.2-4.6c2.3-5.8,4.8-6.5,12.9-18.2c1.7-2.4,3.1-4.6,5.9-6.7
		c2.4-1.7,3.5-2.6,5.3-2.9c1.4-0.2,2.7,0,3.6-1c0.8-0.9,0.7-2,1.2-2.1c0.6-0.1,0.8,1.3,1.7,1.4c0.8,0.1,1.4-1,2.3-1.9
		c1.2-1.2,2.6-1.5,5-2c3.1-0.7,9-0.7,15.8,1.8c1.5,0.5,7.3,2.8,13.1,8c3.1,2.8,5.2,5.6,7.2,8.2c2.9,3.8,2.5,4,5.6,8
		c2.7,3.6,3.7,4.3,7.2,9c2,2.7,3.1,4.3,3.9,6.6c0.8,2.1,0.6,2.9,1.1,5.4c1.4,7,3.6,7.3,4.2,12.7c0.5,4.4-1,4.8,0.1,7.7
		c0.9,2.4,2.5,3.6,3.7,7.2c0.4,1.3,0.6,2.2,0.7,2.9c0.6,3.5,2,9,4.8,20.1c1.4,5.8,2.2,8.7,2.8,10.6c4,12.6,7.4,15.2,8.4,15.9
		c0.6,0.4,1.8,1.1,1.7,1.6c-0.2,0.5-2.4,0.7-3.9-0.3c-1.5-1-1-2.3-2.2-4c-1.6-2.3-4.4-2.9-8.4-3.8c-2.6-0.6-3.4-0.4-5.6-1.2
		c-1.3-0.5-1.8-0.9-2.3-0.7c-1.6,0.7-1.5,6.1,0.8,7.3c0.8,0.4,1.3,0.1,2.9-0.1c2.3-0.3,4.5,0.3,9,1.4c3.7,0.9,4.6,1.5,5.2,2.3
		c0.7,0.9,0.9,1.8,1.1,2.4"/>
	<path class="st11" d="M100.8,40.1c-0.7-0.4-0.4-2.3,0.2-6c0.1-0.7,0.3-1.9,1.3-2.9c0.1,0,0.1-0.1,0.1-0.1c1-0.9,2.4-1,3.6-1
		c5,0.1,9.8,2.8,10.9,3.4c3.2,1.8,5.9,3.4,8.5,6.6c2,2.5,3,5,5,9.9c1.8,4.5,1.6,5.6,3.4,8.4c1.6,2.5,2.6,2.9,3.6,5.1
		c1.6,3.5,1.4,7.4,0.9,7.6c-0.4,0.1-1.1-1.9-1.1-2.1c-0.7-2.1-0.3-2.9-0.8-4.2c-0.6-1.6-1.6-1.4-3.9-3.6c-2.7-2.6-3.9-5.2-4.1-5.8
		c-0.9-2.1-1.3-3.1-1.1-4.5c0.2-0.9,0.6-1.8,0.2-2.4c-0.4-0.5-1-0.3-1.7-0.8c-0.7-0.6-0.9-1.5-1-1.9c-0.8-2.8-5.6-4.5-7.1-5.1
		c-3.1-1.2-3.3-0.3-5.8-1.5c-2.3-1.1-3.2-2.4-4.6-2.1c-1,0.2-1,1-2.8,2C103.6,39.5,101.7,40.7,100.8,40.1z"/>
	<path class="st12" d="M113.6,142.6"/>
	<path class="st13" d="M104.7,140.7c0.1-0.1,0.2,0,0.6,0c0.4,0,0.7-0.1,1.1-0.1c0.6-0.1,0.5,0,1.7-0.1c0.2,0,0.6-0.1,1.4-0.1
		c0.9-0.1,1.4-0.1,1.8-0.2c0.9-0.1,0.9-0.1,1.6-0.2c0.5-0.1,0.6-0.1,2.3-0.2c2.2-0.1,2.3-0.2,2.6-0.1c0.4,0,0.7,0.1,1.3,0
		c0.2,0,0.6,0,1.2-0.2c1.1-0.2,2-0.6,2.2-0.7c1.8-0.7,2.8-1.7,2.9-1.6c0.1,0.1-0.4,0.4-0.9,1.2c-0.3,0.4-0.5,0.8-0.7,1.2
		c-0.5,1-0.5,1-0.9,1.7c-0.2,0.3-0.2,0.3-0.7,1.1c-0.2,0.3-0.5,0.8-0.5,0.8l0,0c0,0-0.4,0.8-0.6,1.5c-0.3,1.1,0,1.3-0.3,2.8
		c-0.1,0.6-0.3,1-0.4,1.3c-0.3,1-0.5,1-0.8,1.9c-0.5,1.4-0.7,2.5-0.7,2.8c0,0.4,0,0.3,0,1.3c0,0.7-0.1,1.6-0.1,2.3
		c-0.1,1-0.3,1-0.8,2.9c-0.4,1.7-0.6,2.7-0.8,2.7c-0.1,0-0.1-0.5-0.4-1.5c-0.2-0.6-0.3-0.7-0.9-2.1c-0.5-1.2-0.5-1.2-0.9-2.1
		c-0.4-1-0.7-1.5-1-1.9c-0.3-0.5-0.7-0.9-1.1-1.5c-0.6-0.7-0.7-0.7-1-1.2c-0.5-0.6-0.8-1.2-0.9-1.6c-0.5-1-0.4-1.2-0.9-2.4
		c-0.1-0.2-0.3-0.8-0.9-1.8c-0.5-1-0.7-1.6-0.8-1.6c-0.7-0.9-1.2-0.8-2.1-1.9c-0.3-0.4-0.2-0.3-0.6-0.9
		C105.1,141.3,104.6,140.8,104.7,140.7z"/>
</g>
<g id="Layer_3">
	<path class="st1" d="M50.7,164.6c4.7,3.3,6.9,6.6,8,9.1c0.9,1.9,1.1,3,2.4,5.3c2,3.4,3.3,3.4,5.1,6.2c1.6,2.6,1.2,3.6,2.7,8
		c1.2,3.6,2.3,4.9,4,8.4c0.8,1.5,1.4,2.9,1.9,4.2c2,4.9,3.2,8.9,3.4,9.8c1,3.6,4,10,12.2,22"/>
	<path class="st14" d="M142.3,191.9c0-2.7,0-2.9-0.1-3.4c0-0.1,0-0.2,0-0.2s0,0.1,0,0.2c0.1-0.1,0.7-1.2,0.8-1.2
		c0,0,0.5-0.8,0.8-1.4c1.6-2.6,2.4-6.9,2.8-8.6c0.2-1,2-4.5,5.6-11.6c1.7-3.3,3.1-6.1,5.6-9.3c0.5-0.7,0.4-0.6,0.7-0.9
		c0.6-0.7,1.5-1.9,1.5-1.9c-0.1,0-0.2,0.1-0.2,0.1c-0.1,0,0.1-0.1,0.2-0.1c2.1-0.8,5.3-1.2,5.3-1.2c2.1-0.3,3.2-0.4,3.5-0.4
		c2.7,0.2,4.6,3.5,4.8,3.9c1.8,3.2,1,6.8,0.3,9.5c-0.9,3.9-2,4.1-2,6.9c0,3.1,1.3,3.4,1.3,6.7c0,2.6-0.8,3-1.6,7.1
		c-0.6,3.1-0.3,3.7-0.7,7.3c-0.4,3.3-0.9,5.5-2,9.8c-1.8,7.1-2.2,6.3-3.3,11.6c-0.2,1-0.8,4.2-2,10.7c-0.5,2.8-0.6,3.2-0.7,3.8
		c-0.6,4.4-0.4,5.6-0.9,5.8c-1.5,0.5-5.7-8.2-8-12.9c-2.1-4.4-3.1-6.9-3.3-7.6c-1.2-3.3-1.1-3.9-2.4-7.3c-1.3-3.4-2.7-6.5-3.3-7.8
		C144,197.1,142.4,193.8,142.3,191.9z"/>
	<path class="st15" d="M122.9,111.2c0.3,0.2,0.5,0.2,0.6,0.1c0.1-0.1,0-0.3-0.1-0.7c-0.1-0.3-0.1-0.5-0.1-0.5c0,0-0.2,0.9,0.2,1.2
		c0.4,0.3,1.3-0.2,1.3-0.2s-0.6-0.1-0.8,0.2c-0.1,0.2,0.1,0.3,0.2,0.7c0.3,0.7,0.1,1.4,0.1,1.4c0,0,0.3-1.3-0.1-1.4
		c-0.1-0.1-0.2,0.1-0.5,0.2c-0.7,0.2-1.3-0.6-1.4-0.5c-0.1,0,0,0.2,0.4,0.8"/>
	<path class="st14" d="M89.1,184.7c-1.3-1.3-9.9-9.8-11.1-12.1c0-0.1-0.1-0.2-0.1-0.2c0.4-0.4,16.7,17.6,16.7,17.6l4.7,4
		c-0.1,1.2-1.6,20-1.6,20c-1.2,8.7,2.3-19.1,1.8-19.1c-0.1,0-0.3,0.8-0.4,1.3c-0.4,1.9-0.4,3.3-0.4,4.4c0,1.5-0.2,2.9-0.3,4.4
		c-0.2,2.6-0.8,11.3-1.7,16.1c-0.7,3.9-2.3,9.7-6.4,16.5c-2.6-4.1-5.1-8.1-7.7-12.2c-2.3-4-3.7-7.4-4.5-9.8
		c-0.9-2.7-1.6-5.4-3.4-9.8c-0.5-1.3-1.1-2.6-1.9-4.2c-1.6-3-1.9-2.8-2.9-4.9c-0.9-1.8-0.7-2.1-3.1-9.6c-0.4-1.2-0.6-1.8-0.7-2
		c-1.3-3.1-3.3-3.9-5.1-6.2c-1.4-1.9-1.3-2.8-2.4-5.3c-1.1-2.4-3.1-5.7-7.1-9.1c5.5-0.8,11-1.5,16.5-2.3c0,0,28.5,30.1,26.6,27.8
		c-1.2-1.4-2.1-2.4-3-3.2c-3.6-3.6-5.5-5.2-6.6-6.3c-1.1-1.1-0.8-0.9-2.9-3.3c-0.6-0.7-1.7-1.9-4.2-4.6c-2-2.1-3-3.1-5.8-6.1
		c-1.8-1.9-3.2-3.4-4.1-4.3"/>
</g>
<g id="Layer_4">
	<path class="st2" d="M85.1,81.7L85.1,81.7l0.6-1.3l0,0l0,0l0,0c0,0,0.7-0.9,0.8-0.9c0.4-0.4,1-0.8,1.8-1.3c1.5-0.7,2.8-0.9,3.2-0.9
		c0.8-0.1,1.4,0,2.7,0.2c0.9,0.1,2.3,0.3,2.3,0.3l0,0c0,0,0.7,0.3,1.4,0.7c0,0,0.7,0.4,1.1,0.7c0.4,0.3,0.4,0.3,0.8,0.6
		c0.5,0.3,1.1,0.6,1.1,0.6c-0.3-0.3,1,0.6,0.8,1c-0.1,0.3-1.6,0-4,0c-0.8,0-1.4,0-1.5,0.1c-1,0.1-1.5,0.3-3.5,0.3
		c-1.5,0-2.5-0.1-5-0.1c-0.3,0-0.6,0-0.6,0C86.2,81.7,85.6,81.7,85.1,81.7z"/>
	<path class="st2" d="M92.1,78.6"/>
	<path class="st16" d="M89.6,81.8c-0.4-0.5,0.4-1.9,0.4-1.9l0,0l0,0l1-0.7l0,0l0,0c0.5-0.4,0.9-0.5,1.1-0.5c0.4,0,0.4,0.3,0.9,0.4
		c0.5,0.1,0.6,0,1.2,0c0.5,0,0.6,0,0.7,0c0,0,0.1,0,0.1,0c0,0,0,0,0,0c0.1,0,0-0.3,0.1-0.5c0.2-0.3,1.5,0.3,1.7,0.4
		c1,0.5,1.9,1,1.9,1l0,0l0,0c0.2,0.2,0.3,0.3,0.5,0.5c0.7,0.7,1,0.8,0.9,1c0,0.1-0.2,0-0.6,0c-0.3,0-0.4,0-0.7,0.1
		c-0.7,0.1-1.4,0-2.5,0c-0.7,0-0.6,0.1-1.4,0.1c-0.3,0-0.4,0-0.6,0c-0.5,0-0.7,0-1.4,0C91.8,81.5,90,82.3,89.6,81.8z"/>
	<path class="st17" d="M96.6,81.5c0.1-0.2,0.3-0.5,0.4-0.6c0.1-0.1,0.2-0.3,0.2-0.6c0.1-0.4-0.1-0.9-0.1-0.9
		c-0.3-0.2-0.8-0.6-1.4-0.8c-1.6-0.5-3.6,0-3.6,0c0,0-0.1,0.1-0.3,0.4c0,0-0.6,1.2-0.6,1.2c0,0,0.2-0.5,0.2-0.5c0,0-0.3,0.5-0.1,1.1
		c0.1,0.2,0.1,0.3,0.2,0.4c0,0,0.2,0.3,0.5,0.5c0,0,0,0,0.5,0.2c1.2,0,1.2,0,1.2,0C94.5,81.7,95.4,81.6,96.6,81.5z"/>
	<path class="st2" d="M94.1,79.9"/>
	<path class="st17" d="M90.4,80.3"/>
	<path class="st18" d="M94.8,111.5c0.1-0.2,0.3-0.2,0.7-0.3c0.7-0.2,1.3-0.4,2-0.6c0.9-0.2,1.2-0.3,1.9-0.6c1.6-0.4,2.8-0.5,5.1-0.6
		c1.2-0.1,2.1-0.1,2.9-0.1c1.8,0,2.4,0.1,2.7,0.2c0.4,0.1,1.5,0.3,1.5,0.3s1.4-0.2,1.7-0.3c1.8-0.3,3.7-0.3,3.9-0.3
		c1.3,0,1.4,0.1,5.4,0.4c0.7,0.1,1.3,0.2,1.9,0.2c0.6,0,0.8,0,0.9,0.2c0.4,0.4,0,1.6-0.2,2.2c-0.2,0.6-0.6,1.6-1.6,2.7
		c-0.5,0.5-1.4,1.6-3,2.2c-0.6,0.2-1.3,0.3-2.8,0.3c-2.7,0.1-3.6-0.1-5.4,0.3c-0.7,0.2-0.7,0.3-1.3,0.4c-1.4,0.3-2.1,0-3.8-0.1
		c-1.7,0-1.6,0.3-3.1,0.2c-0.6,0-1.6-0.1-2.8-0.5c-1.4-0.5-2.3-1.1-3.1-1.7c-1.4-1-2.1-1.7-2.4-2.1c-0.2-0.3-0.4-0.5-0.6-0.9
		c0,0,0,0,0,0c0,0,0,0,0,0C95.2,113,94.4,112,94.8,111.5z"/>
	<path class="st19" d="M103,114.6c-0.2,0.2-0.5,0.4-0.8,0.8l0,0c0,0,2.1,0.5,2.2,0.6c-1.4,0-2-0.3-2.1-0.6c-0.2-0.5,0.3-1.2,0.1-1.3
		c-0.1,0-0.2,0-0.6,0.2c-0.3,0.1-0.5,0.2-0.9,0.3c-0.2,0.1-0.3,0.1-0.6,0.2c-0.2,0.1-0.8,0.2-0.8,0.1c-0.1-0.1,0.3-0.5,0.6-0.6
		c0.2-0.2,0.6-0.3,0.6-0.3s-0.4-0.5-0.6-0.4c-0.1,0.1-0.1,0.3-0.2,0.3c0,0-0.1,0-0.1-0.1c-0.7-0.4-0.6-1.7-0.6-1.7s0.4-0.1,0.7-0.1
		c0.2,0,0.3,0.1,0.6,0.1c0.3,0.1,0.5,0.1,0.5,0.2c0.3,0.3-0.6,1.1-0.3,1.6c0.1,0.2,0.4,0.3,0.6,0.3c0.4,0.1,0.8,0,0.9-0.1
		c0.1,0.8,0.1,1.2,0.1,1.2s0-0.4-0.1-1.2c0,0,0.2-0.1,0.2-0.1c0.3-0.2,0.1-0.9,0.1-1c0-0.4,0-0.6,0-0.8c0.1-0.2,0.1-0.4,0.3-0.5
		c0.3-0.1,0.6,0.1,0.6,0.2c0.2,0.1,0.2,0.3,0.3,0.3c0.2,0,0.3-0.2,0.4-0.1c0,0,0.1,0,0.1,0c0.2,0.1,0.1,0.4,0.1,1c0,0.3,0,0.3,0,0.5
		c0,0.2-0.1,0.8-0.1,0.8s-0.3-0.1-0.4-0.1c0,0-0.3-0.1-1.2,0.7"/>
	<path class="st19" d="M100,114.3c0,0-0.6-0.1-1.1-0.1c-0.7,0-1.2,0.3-1.1,0.3C97.9,114.6,98.8,114.2,100,114.3c0,0,0.8,0.1,2,0.7"
		/>
	<path class="st19" d="M102.6,115.3c-0.1,0.1-0.3,0.3-0.4,0.4c0,0,1.5,0.7,1.5,0.7s-1.6-0.5-1.5-0.7c0.1-0.2,2-0.2,2.1,0.2
		c0,0.2-0.3,0.5-0.6,0.5c-0.6,0.1-1.2-0.7-1.2-0.7s-0.2-0.1-0.3,0c0,0,0,0,0,0c0,0.1,1.5,0.7,1.5,0.7s-1.5-0.7-1.5-0.7l1.5,0.7
		c0.6-0.5,0.8-1.3,0.5-1.8c-0.2-0.3-0.6-0.5-0.7-0.5c-0.5-0.1-0.8-0.1-0.8-0.1c0,0,0,0,0.4,0.2c0.4-0.1,0.4-0.1,0.5-0.1
		c0.4,0,0.6,0.6,0.7,0.5c0.1-0.1,0.1-0.4,0.2-0.4c0.1,0,0.2,0.9,0.2,0.9l-0.3-0.5c0,0,0.1,0.2,0.3,0.5c0.6-0.4,1.2-0.8,1.8-1.2
		c0.1-0.6,0.1-1.1,0-1.4c0,0-0.1-1,0.1-1.1c0,0,0.1,0,0.1,0c0.1,0,0.1,0,0.3,0c0.5,0.1,0.7-0.3,1.2-0.3c0.1,0,0.4,0,0.7,0.2
		c0,0,0.1,0,0.4,0.3l-0.2,1.3c0,0,0.1-1,0.1-1s0.1,0.5-0.1,1c-0.1,0.4-0.2,0.4-0.6,1.3c-0.3,0.7-0.4,0.8-0.5,0.8
		c-0.1,0-1.8-1.2-0.9-0.7c-0.2-0.1-0.2-0.2-0.2-0.2s-1.4,0.4-2.3,0.6c-0.3-0.1-0.4-0.1-0.4-0.1"/>
	<path class="st20" d="M101.4,115.6"/>
	<path class="st19" d="M104.5,114.4c0.1-0.1,0.5,0.2,1.3,0.4c0.9,0.3,1.3,0,1.6,0.3c0.2,0.3-0.2,0.6,0,1.5c0,0.2,0.1,0.4-0.1,0.8
		c0,0.1-0.1,0.3-0.3,0.4c-0.2,0.1-0.5,0.2-1.6-0.4c-0.1-0.1-1.7-0.9-1.6-1.1c0.1-0.2,1.4,0.4,1.7,0
		C105.7,115.9,104.3,114.7,104.5,114.4z"/>
	<path class="st19" d="M105.7,115.5c0.1-0.2,0.3-0.4,0.6-0.6c0.2-0.1,0.5-0.3,0.8-0.2c0.2,0.1,0.2,0.2,0.6,0.6
		c0.4,0.3,0.5,0.3,0.5,0.5c0.1,0.2-0.2,0.3-0.3,0.8c0,0.1-0.1,0.3-0.1,0.8c0,0.2-0.1,0.3-0.1,0.5c0,0.2,0,0.3,0,0.4"/>
	<path class="st21" d="M113,117.7c0-0.1-0.3-1-0.1-1.5c0-0.1,0.1-0.2,0.2-0.3c0.1-0.1,0.3-0.4,0.6-0.3c0.1,0,0.2,0.1,0.3,0.3
		c0.3,0.3,0.3,0.7,0.5,0.6c0.1,0,0.1-0.3,0.2-0.2c0.1,0.1,0.1,1.1,0.1,1.1s0-1.4-0.1-1.5c-0.1,0-0.2,0.2-0.2,0.2
		c-0.2-0.1-0.3-0.1-0.4-0.2"/>
	<path class="st21" d="M112.1,118.3c0-0.1-0.6-0.8-0.7-1.3c0-0.1,0-0.2,0-0.3c0-0.2,0.1-0.4,0.3-0.5c0.1,0,0.2,0.1,0.3,0.2
		c0.3,0.2,0.5,0.5,0.6,0.4c0.1-0.1,0-0.3,0-0.3c0.1,0,0.5,1,0.5,1c0,0-0.6-1.3-0.7-1.3c0,0,0,0.2,0,0.2c-0.1,0-0.2,0-0.4,0"/>
	<path class="st19" d="M111.3,116.1l0,0.2c-0.1,0.4-0.1,0.7-0.2,0.9c-0.1,0.4-0.3,0.7-0.2,1c0,0.1,0.1,0.3,0.1,0.3l0,0"/>
	<path class="st19" d="M109.6,118.2c0-0.4,0-0.7-0.1-1c0-0.1-0.1-0.4-0.1-0.8c0-0.2,0.1-0.3,0.1-0.4c0.1-0.1,0.1,0,0.3-0.1
		c0.2,0,0.2-0.1,0.3-0.1c0.2,0,0.2,0,0.5,0.1c0.1,0,0.3,0,0.5-0.1"/>
	<path class="st20" d="M107.7,116.4"/>
	<path class="st20" d="M104.4,115.4"/>
	<path class="st19" d="M112.6,114c0-0.2,0-0.4,0-0.6c0-0.1,0-0.2,0-0.4c0-0.2,0-0.3,0.1-0.7c0.1-0.5,0.1-0.5,0.1-0.5
		c0.2-0.3,0.6,0,1.4-0.2c0.2,0,0.4-0.1,0.8-0.2c0.1,0,0.2,0,0.3,0c0.3,0,0.5,0,0.7,0.1c0.4,0.3,0.2,0.8,0.5,2.3c0,0,0,0.1,0,0.1
		c0.1,0.4,0,0.5,0,0.9c0,0.3,0,0.5-0.1,0.6c0,0,0,0-0.1,0c-0.1,0-0.2,0-0.3,0c-0.2,0-0.3,0.3-0.4,0.2c-0.1,0,0-0.1-0.1-0.1
		c-0.1,0-0.2,0.1-0.3,0.1c-0.1,0.1-0.2,0-0.5,0.1c-0.3,0-0.2,0-0.3,0c-0.3,0-0.4-0.2-0.8-0.2c-0.1,0-0.1,0-0.2,0
		c-0.1,0-0.2-0.1-0.4-0.1c-0.1,0-0.2,0-0.2,0c-0.1,0.1,0,0.2-0.1,0.2c0,0-0.2-0.4-0.2-0.9C112.5,114.1,112.7,117.4,112.6,114z"/>
	<path class="st19" d="M116.7,111.2c-0.1,0.1-0.3,0.2-0.4,0.5c-0.1,0.3,0,0.5,0,1.2c0.1,0.9-0.1,1.1,0.2,1.4c0,0.1,0.3,0.2,0.7,0.4
		c0.7,0.3,0.9,0.4,1,0.3c0.1-0.1,0.1-0.2,0.2-0.3c0.2-0.2,0.3,0,0.6-0.2c0.2-0.1,0.2-0.2,0.3-0.2c0.1,0,0.3,0,0.3,0
		s-0.1-0.1-0.1-0.2s0.1-0.2,0.2-0.3c0.1-0.2-0.1-0.4-0.2-0.7c0-0.3,0.1-0.3,0.1-0.8c0-0.1,0.1-0.4,0-0.8c-0.1-0.3-0.1-0.4-0.2-0.5
		c-0.2-0.1-0.3,0.2-0.6,0.2c-0.2,0-0.2-0.1-0.5-0.2c-0.3-0.1-0.5-0.1-0.7-0.1C117.3,111,117,111,116.7,111.2z"/>
	<path class="st19" d="M115.8,115.7c-0.1,0.1-0.1,0.1-0.3,0.2c-0.3,0.2-0.5,0.2-0.6,0.3c-0.1,0.1,0,0.2,0,0.4
		c-0.1,0.2-0.1,0.3-0.1,0.4c0,0.1,0.2,0.1,0.3,0.1c0.5,0.1,0.7,0.1,1,0.1c0.9-0.1,1.2,0.1,1.3-0.1c0.1-0.2-0.3-0.3-0.3-0.8
		c0-0.4,0.2-0.5,0.1-0.7c-0.1-0.1-0.3-0.1-0.8-0.1C116,115.6,115.9,115.6,115.8,115.7z"/>
	<path class="st21" d="M119.5,117.1c-0.1-0.1-0.3-0.3-0.3-0.6c0-0.1,0-0.1,0-0.2c0-0.4,0.3-0.5,0.3-0.9c0-0.1,0,0,0-0.2
		c0-0.2-0.1-0.4-0.1-0.6l0,0c0.3,0.1,0.6,0.2,0.7,0.1c0.1-0.1-0.1-0.4,0-0.4c0.1-0.1,0.4,0.2,0.4,0.3c0,0.1-0.3,0-0.4-0.1
		c0-0.1,0.2-0.3,0.3-0.3c0.2-0.1,0.5,0,0.5,0.1c0,0.1-0.1,0.1-0.2,0.2c-0.2,0.2-0.3,0.4-0.2,0.4c0,0,0.2-0.1,0.3-0.2c0,0,0,0,0,0
		c0,0,0.1-0.1,0.1-0.4l0,0c-0.6-0.2-0.9-0.1-1,0c-0.1,0.1-0.1,0.3-0.2,0.3c-0.2,0.1-0.4-0.2-0.4-0.1c-0.1,0.1,0.3,0.5,0.2,0.6
		c-0.1,0.1-0.3-0.1-0.4,0c-0.1,0-0.2,0.3-0.1,0.2c-0.2,0.2-0.3,0.2-0.4,0.2c-0.2,0-0.3-0.1-0.4,0c-0.1,0.1,0,0.1-0.1,0.2
		c-0.1,0.1-0.3,0.1-0.5,0s-0.1-0.2-0.2-0.2c-0.3-0.2-1.1,0.6-1.1,0.6c0,0,0.3-0.3,0.6-0.4c0.1,0,0.1,0,0.2,0c0.1,0,0.1,0,0.2,0.1
		c0,0,0,0,0.1,0.3c0.1,0.1,0.2,0.1,0.2,0.1c0.1,0-0.1-0.2,0-0.3c0.1-0.1,0.3,0.1,0.5,0c0.2-0.1,0.1-0.3,0.2-0.4
		c0.2-0.2,0.5-0.1,0.5-0.1s0.1,0,0.3,0c0.2,0,0.2,0,0.2,0c0.2,0.1,0.3,0.4,0.3,0.4c0,0-0.1-0.4-0.1-0.4s0,0.1,0.1,0.4"/>
	<path class="st19" d="M120.4,116.6c0,0,0,0.2,0,0.2c0,0,0.2-0.3,0.3-0.8c0.1-0.6-0.2-1.3-0.4-1.3c-0.1,0-0.1,0.5-0.3,0.6
		c-0.1,0-0.2,0-0.3,0c-0.1,0-0.2-0.1-0.3,0c-0.1,0.1-0.1,0.1-0.1,0.2c0,0.1,0,0.1,0.1,0.2c0.1,0.2,0,0.3,0,0.4c0,0.3,0,0.8,0.1,1
		c0.2,0.3,0.9,0,1-0.3C120.3,116.7,120.4,116.6,120.4,116.6z"/>
	<path class="st19" d="M119.5,111.3c0.1-0.1,0.2-0.2,0.4-0.3c0.2-0.1,0.4-0.2,0.5-0.1c0.1,0.1,0,0.2-0.1,0.6c0,0.2,0,0.2,0.1,0.7
		c0,0.5,0.1,0.7,0,0.9c-0.1,0.3-0.3,0.5-0.4,0.6c-0.2,0.2-0.4,0.3-0.6,0.3c-0.1-0.1-0.2-0.2-0.2-0.3"/>
	<path class="st22" d="M121.6,113c0,0,0.9,1.6,0.9,1.6c0,0,0,0-0.2-0.4C122.1,113.8,121.9,113.3,121.6,113L121.6,113l-0.2-0.1
		L121.6,113C121.7,113,121.7,113,121.6,113C121.7,113,121.7,113,121.6,113C121.7,113,121.6,113,121.6,113c0-0.1,1.1-0.7,1.1-0.7
		C122.7,112.3,121.8,112.5,121.6,113c-0.2,0.5,0.8,1.1,0.5,1.7c-0.1,0.4-0.7,0.6-0.7,0.6c0-0.1,0.6-0.4,0.6-0.9
		C122.2,113.8,121.5,113.5,121.6,113c0.1-0.5,1.1-0.7,1.1-0.7C122.7,112.3,122.1,112.5,121.6,113c-0.3,0.4-0.5,0.8-0.5,1.1
		c-0.1,0-0.1,0-0.2-0.1l0.2,0.1l0.1-0.4c0,0.1-0.1,0.3-0.1,0.4c0-0.1,0-0.2,0.1-0.4c0-0.1,0.2-0.8,0.2-0.8c0,0,0.1,0.5-0.2,0.8
		c-0.2,0.3-0.5,0.3-0.5,0.4c0,0,0.1,0,0.2,0c0.2-0.1,0.3-0.3,0.3-0.3c-0.1,0.1-0.1,0.3-0.1,0.4l0,0c0.1-0.4,0.1-0.4,0.1-0.4s0,0,0,0
		l-0.1,0.3C121.5,113.2,121.6,113,121.6,113s-0.1,0.3-0.4,0.7c-0.2,0.2-0.3,0.3-0.3,0.3c0,0,0.3-0.2,0.3-0.3c0,0,0,0,0,0s0,0,0,0
		c0,0,0,0,0,0s0,0,0,0l0,0c-0.3,0.2-0.5,0.3-0.5,0.3s0.4-0.4,0.5-0.4c0,0-0.1,0.3-0.3,0.3c-0.2,0-0.5-0.3-0.5-0.3v0
		c0,0,0.2,0,0.8-0.1l-0.8,0.6l0.8-0.6c0,0,0,0,0,0c-0.3,0-0.5,0-0.8,0.1C122.8,113.1,123.4,112.8,121.6,113z"/>
	<path class="st19" d="M121.7,111.8c-0.1,0-0.3-0.1-0.3,0c-0.1,0.1-0.1,0.3-0.1,0.5c0,0.1-0.1,0.6-0.3,0.6c-0.2,0-0.4-0.3-0.5-0.5
		c0-0.1,0-0.2,0-0.3c0-0.7,0-1.3,0-1.3c0.2,0.1,0.3,0,0.3,0c0.1-0.1,0.1-0.2,0.3-0.3c0.1-0.1,0.2-0.1,0.3-0.1s0.2,0,0.3,0
		c0.1,0,0.4,0.2,0.3,0.2"/>
	<path class="st19" d="M122.1,111.9c0.1,0,0.1-0.3,0.2-0.4c0.2-0.1,0.4,0.3,0.5,0.3c0.2-0.1-0.4-1.6-0.4-1.6l0,0
		c0,0-0.4,0.1-0.5,0.3c-0.1,0.1-0.1,0.2,0,0.3C122,111.6,122.1,111.9,122.1,111.9z"/>
	<path class="st19" d="M111.4,115.3"/>
	<path class="st19" d="M97.7,112.4c0,0,2.1-0.2,2.1-0.2c0,0-0.5-0.2-0.7,0.1c-0.1,0.1-0.1,0.3-0.1,0.8c0,0.4-0.1,0.7-0.2,0.8
		c-0.2,0.1-0.7-0.6-0.7-0.6C97.9,113,97.8,112.6,97.7,112.4z"/>
	<path class="st21" d="M103.2,115.4c0.2-0.1,0.4-0.2,0.6-0.2c0.1,0,0.1,0.1,0.3,0.1c0.2,0.1,0.4,0,0.7,0c0.1,0,0.3,0,0.4,0.1"/>
	<path class="st19" d="M114.5,116.6L114.5,116.6c0.2,0.8,0.3,1,0.3,1c0.1,0,0.1-0.5,0.1-0.9c0-0.3,0-0.3,0.1-0.5
		c0.2-0.3,0.5-0.3,0.6-0.3c0.3,0,0.4,0,0.6,0.1"/>
	<path class="st19" d="M122.2,113.4"/>
	<path class="st20" d="M124.6,115.7"/>
	<path class="st19" d="M108.9,112c-0.2,0.6-0.1,0.8-0.2,1.8c0,0.2,0,0.5,0,1.1c0,0.2,0,0.4,0.1,0.5c0.1,0,0.2,0.1,0.3,0
		c0.1,0,0.1-0.1,0.1-0.1c0.1,0,0.1,0.1,0.2,0.1c0,0,0,0,0,0c0,0,0.1,0,0.1,0c0,0,0,0,0.1,0c0,0,0.2,0,0.2,0c0,0.1,0,0.1,0,0.2
		s0.1,0,0.3,0c0.1,0,0.1,0,0.2,0.1c0,0,0.1,0,0.1,0c0,0,0.2,0,0.3,0.1c0.2,0,0.4,0,0.6,0c0.1,0,0.1-0.1,0.2,0c0.1,0,0.1,0.1,0.2,0.2
		c0.1,0,0.1-0.1,0.3-0.1c0.1,0,0.2,0,0.2-0.1c0,0-0.1,0-0.1-0.1c0,0,0-0.1,0-0.2c0-0.1,0-0.1,0-0.1c0,0,0,0,0-0.1c0,0,0,0,0,0
		c0-0.1,0.1-0.9,0.1-1c0,0,0-0.1,0-0.1c0,0,0-0.1,0-0.1c0-0.1,0-0.3,0-0.3c0-0.5,0-0.5,0-0.5c0-0.2,0-0.5,0.2-0.8
		c0.1-0.1,0.1-0.2,0.1-0.3c0,0-0.1-0.1-0.1-0.2l0,0c-0.1-0.2-0.1-0.2-0.2-0.3c0,0,0,0,0,0c-0.1-0.1-0.3-0.2-0.5-0.2
		c-0.5-0.1-0.1,0-0.5-0.1c-0.8,0-0.8,0-1.2,0c-0.5-0.1-0.6-0.2-0.8-0.1C109.3,111.4,109.1,111.5,108.9,112z"/>
	<path class="st15" d="M110.9,116.6l-0.5-0.3l0,0c-0.2,0-0.4,0-0.7-0.2c-0.2-0.1-0.1-0.1-0.3-0.2c-0.2-0.1-0.6-0.1-0.8-0.1
		c-0.3,0.1-0.3,0.2-0.3,0.2"/>
	<path class="st22" d="M122.9,113.5c0,0,0.2-0.2,0.2-0.5c0-0.4-0.3-0.6-0.4-0.6"/>
	<path class="st19" d="M104.8,111.9c0,0,0.4-0.4,1-0.3c0.4,0.1,0.6,0.3,0.6,0.4"/>
	<path class="st19" d="M104.8,111.9c-0.2,0.1-0.4,0.1-0.6,0.2"/>
	<path class="st19" d="M101.8,116c-0.5,0.1-0.9,0-1.2-0.1c-0.2-0.1-0.4-0.1-0.5-0.3c-0.2-0.3-0.1-0.7,0.2-1.1"/>
	<path class="st19" d="M102.7,111.8c-0.3-0.3-0.5-0.4-0.6-0.3c-0.2,0.1-0.2,0.6-0.4,0.7c-0.2,0.1-0.4-0.2-0.6-0.1
		c-0.2,0.1-0.2,0.3-0.2,0.5"/>
	<path class="st23" d="M99.1,108.2c1.4-0.8,2.2-0.6,3-0.8c0.7-0.2,2.5-0.8,4.6-0.6c2,0.2,3.1,1,5,0.7c0.2,0,0.5-0.1,1.1-0.2
		c0.1,0,1.6-0.2,2.8-0.2c1.1,0,1.1,0.1,3.2,0.4c1.9,0.2,2,0.1,4.1,0.4c1.1,0.1,1.8,0.3,2.2,0.3c0.9,0.2,0.8,0.5,2.6,0.9
		c0.3,0.1,1.1,0.5,1.6,1.1c0.3,0.3-0.1-0.3,0,0c0,0.1,0.6,0.5,0.3,1.1c-0.1,0.2-0.1,0.1-0.1,0.1s-0.6,1.1-0.9,1.5
		c-1.1,1.7-1.8,1.6-2.8,3.1c-0.6,1-0.4,1.2-1.1,2.1c-0.3,0.3-0.8,1.1-1.8,1.6c-0.6,0.3-1,0.4-2.3,0.6c-3.1,0.5-2.5,0.5-3.6,0.7
		c-1.7,0.2-3.1,0.2-3.9,0.2c-2.3,0-2.3-0.2-4-0.2c-0.7,0-0.6,0.1-4.5,0.4c-2,0.2-2.7,0.3-3.6,0c-1.1-0.3-1.8-0.9-2.3-1.2
		c-0.9-0.7-1.4-1.4-2.3-2.7c-1.2-1.7-2.2-3.5-2.2-3.5c-0.8-1.1-0.9-1.5-0.9-1.5c-0.1-0.3-0.2-0.7-0.2-1.3c0.1-0.1,0.3-0.3,0.5-0.5
		c0.7-0.6,1.1-0.5,2.6-1.1c1-0.4,2.4-1,2.5-1.1C98.4,108.5,98.5,108.5,99.1,108.2z"/>
	<path class="st22" d="M123.6,113.9c-0.3,0.2-0.7,0.4-1.1,0.7"/>
	<path class="st20" d="M122.4,110.8"/>
	<path class="st20" d="M124.8,111.1c-0.1-0.2-0.2-0.4-0.3-0.7"/>
	<path class="st20" d="M123.3,110.1"/>
	<path class="st20" d="M59.8,124.3"/>
	<path class="st24" d="M59.6,141c1.3,1.2,1.8,2.2,3.6,5.3c2.4,4.3,2.6,4.6,3,5c1.7,1.4,3.1,1.3,3.5,2.5c0.4,1-0.3,1.6-1.1,4.7
		c-0.6,2.2-0.9,3.4-0.4,3.8c0.8,0.9,3.1-0.5,9.4-3.1c5.6-2.4,7-2.6,7.6-4.1c0.4-1.1,0.2-2.4-2.1-6.6c-1.9-3.6-2.9-5.4-5.2-8.3
		c-3.8-5.1-4.4-9.9-7.2-19.2c-3.5-11.9-10-28.8-12.4-28.3c-1.6,0.3-1.8,8.4-0.8,14.6c0.5,3,1,3.4,1.3,6.3c0.5,4.2,0,7.3-0.7,12
		c-1.2,7.8-2.7,11.9-0.5,14C58.2,140.2,58.5,140,59.6,141z"/>
	<path class="st25" d="M98,36.8c-0.9-0.1-1.4-3.7-1.6-4.9c-0.2-1.4-0.3-2.1-0.1-2.9c0.6-2.7,3.2-4.2,4-4.7c1.8-1,3.4-1.2,6.4-1.6
		c1.9-0.2,3.8-0.4,6.2-0.2c4.5,0.4,7.8,2,10.7,3.5c1.1,0.6,3.6,1.9,6.5,4.1c1.3,1,5.5,4.3,9.8,10.3c2.9,4.2,2.1,4.3,5.1,8.2
		c3.3,4.4,6.6,7.8,6.6,7.8c1.4,1.5,2.7,2.7,3.8,4.9c0.3,0.5,1.1,2.1,1.7,4.4c0.6,2.3,0.2,2.4,0.9,5.1c0.2,0.7,0.7,2.7,1.6,4.4
		c0.1,0.2,0.8,1.7,0.8,1.7c0,0,0.8,1.3,1.1,2.9c0.1,0.8,0.1,1.3,0.4,2.3c0.1,0.3,0.2,0.6,0.2,0.7c0.3,1.4-0.1,2.8-0.6,4.7
		c-0.8,2.6-1.2,3.9-1.1,4.9c0,0.5,0.2,1.2,0.1,2.3c0,1.2-0.2,1.1-0.2,1.9c0,1.4,0.5,2.6,0.8,3.4c0.2,0.4,0.3,0.8,0.7,1.7
		c0.3,0.8,0.5,1.2,0.4,1.8c0,0.3-0.1,0.5-0.3,0.9c-0.2,0.5-0.4,1.2-0.5,2.2c-1.7,2.5-2.6,3.8-2.6,3.8c0.9-4.5-0.7,3.7-0.7,3.7
		c-0.3,1.5-0.6,2.5-0.3,4l0,0c1.1,3,1.3,3.5,1.3,3.5c0.6,2.3-0.1,2.7,0.3,4.1c0.6,1.8,1.9,1.6,4.3,3.9c1.7,1.6,1.2,1.8,4.5,6.1
		c1.5,1.9,1.8,2.3,2,2.6c0,0,1.3,1.4,2.6,2c0.2,0.1,0.4,0.2,0.4,0.2c0.4,0.2,0.6,0.2,0.6,0.2c0,0.1-1.5,0-3.3-0.4
		c-0.6-0.1-0.7-0.2-1.8-0.5c-2.6-0.7-2.6-0.6-3.7-0.9c-2.7-0.8-3.2-1.5-3.8-1.1c-1.2,0.7-0.8,3.4-0.7,3.7c0.1,0.5,0.4,2.5,1.9,3.9
		c1.9,1.8,4,1,10.7,1.7c5.1,0.5,6,1.2,6.4,1.9c0.9,1.5-0.5,2.6,0.1,5.2c0.7,2.9,2.4,2.9,2.7,4.8c0.4,3.7-6.4,4.9-8.1,10.9
		c-1,3.5,0.3,6.7-0.4,6.9c-0.6,0.1-1.8-1.6-2.2-3.6c-0.4-2,0-3.5,0.9-6.3c2.5-7.8,2.7-8.3,2.5-9.5c-0.7-3.8-4.3-5.8-4.7-6
		c-0.4-0.2-4-2.2-7.3-0.7c-1.7,0.8-1.7,1.8-3,2.5c-4.6,2.6-14.9-4-18.2-11.6c-1-2.3-1-3.7-1-4.2c0.1-2.9,1.7-5.1,3.5-7.7
		c0.6-0.9,0.6-0.7,1.4-1.9c1.4-1.9,3.7-5.1,3-6.1c-0.4-0.4-1.5-0.6-1.5-0.6s-2.5,1.2-3.1,0.7c-0.6-0.6,1.1-3.4,1.8-4.6
		c2-3.2,3-3.8,5.4-7.2c1.6-2.3,2.4-3.5,2.9-5.3c0.6-2.1,0.9-5.1,0.9-5.1c0,0-3-0.3-4.9,0.1c-3.7,0.9-4.8,5.3-5.8,4.9
		c-0.9-0.3,0.5-3.6-0.1-9.1c-0.3-2.6-0.8-3.6-0.9-6.8c-0.1-1.7,0.7-2.9,0.2-4.5c-0.5-1.5-1.1-1.4-2-2.9c-1.6-2.9,0.1-4.5-1.4-7.6
		c-0.8-1.6-1.5-1.6-1.9-3.2c-0.5-1.8,0-3,0.1-4.2c0.3-3-2.1-4.5-4.6-8.5c-1.9-2.9-0.9-2.3-5.3-13c-2.3-5.6-3-6.6-3.8-7.5
		c-2.2-2.4-5-4-7.9-5.6c-2.1-1.2-3.2-1.7-4.2-2c-2.5-0.8-4.6-0.7-5.8-0.6c-1.1,0-1.9,0.2-2.6,0.4c-0.3,0.1-1,0.4-1.8,0.9
		c-0.4,0.3-1.2,0.9-2.6,3.1C98.5,36.2,98.4,36.8,98,36.8z"/>
	<path class="st26" d="M97.4,37.8c-1.8-1.2-2.6-0.7-3.5-1.5c-1.1-1-1.1-3-1-4.5c0.1-1.6,0.4-1.9,0.1-2.3c-0.8-1-4.6-0.3-7.2,2
		c-2.5,2.2-1.6,3.9-4.7,7.3c-1.7,1.9-2.3,1.7-3.5,3.5c-1.3,2-1.8,3.9-2.3,5.7c-0.9,3.7-0.1,3.9-0.9,5.8c-0.9,2.1-2.9,4.5-5.6,5.5
		C67,60,65.8,59.7,64.4,61c-0.8,0.8-1.7,2.2-1.3,2.9c0.4,0.8,2.1,0.6,3.8,0.4c1-0.1,2.9-0.3,4.5-1.1c3.7-1.8,4.9-6.5,6.3-11.7
		c1.3-4.7,0.7-5.4,2.1-8c0.6-1.1,3.3-6.3,7.2-6.4c2.2-0.1,2.7,1.6,6.5,2.1c2.1,0.3,4.7,0.1,4.8-0.5C98.4,38.5,97.9,38.1,97.4,37.8z"
		/>
	<path class="st27" d="M97.9,28.4c1.2-2.8,5.2-3.4,7.3-3.7c1.6-0.2,4.2-0.6,7.1,0.4c3.8,1.4,5.6,4.3,7.2,3.4c0,0,0.1-0.1,1.9-1.9
		c0,0-0.9,2.1-0.2,2.9c0.4,0.5,1.2,0,2.8,0.4c0,0,0.5,0.2,1.2,0.6c2.2,1.2,3.6,4.6,3.6,4.6c2,4.7,5.9,4.7,8.4,9.6
		c2.3,4.3-0.2,5.3,1.4,11c2.1,7.3,6.8,7.3,9.4,14.8c1.8,5.2-0.3,7.5,0.4,10.3c0.2,0.7,0.5,1.1,1,2c2.7,4.9,4.4,4.8,6.2,8.3
		c1.2,2.4,1.4,3,2.8,4.7c0.4,0.5,1.1,1.2,2,2.4c1.1,1.5,1.4,2.2,1.5,2.8c0,0.3,0.1,0.6,0.2,1.3c0.2,0.8,0.3,1.3,0.3,1.5
		c0.3,1.5-1.9,3-3.2,5.6c-0.6,1.3-0.8,2.4-1.1,4.7c-0.3,2.5,0,3.1-0.3,5.9c-0.2,2.4-0.4,3.6-0.8,4.7c-1.7,4-6.3,4.6-6,5.9
		c0.3,1.6,7.2,0.8,8.3,3.7c0.3,0.9-0.1,1.5,0.3,1.9c1.4,1.2,6.8-2.8,7.8-1.6c0.1,0.1,0.1,0.2,0.5,0.9c0.4,0.7,0.7,1,0.9,1.2
		c0.8,0.5,1.5-0.2,1.9,0.2c0.6,0.6-0.6,2.6,0.1,3.3c0.1,0.1,0.2,0.2,0.4,0.3c0.4,0.2,0.9,0.1,2.5,0.7c0.8,0.3,2.7,1.1,4.1,2.6
		c1.6,1.7,0.9,2.8,2.2,4c2.9,2.6,7.8,2.2,7.9,1.6c0.1-0.3-3.5-0.1-6.7-2.6c-2.1-1.6-3-3.6-4.1-6.6c-3.8-9.7-6-18.8-6.2-19.5
		c-1.1-4.4-1.6-5.3-2.1-7.6c-1.1-4.5-2-9.8-2-9.8s-0.4-3.7-1.3-6.5c-0.6-1.9-1-2.2-2.8-5.7c-2.2-4.3-4.1-8-5-12.1
		c-0.1-0.7-0.5-2.2-1.1-4.4c-0.3-0.9-0.6-1.9-1.1-3.4c-1.2-3.3-7.4-20.5-15.2-26.4c-0.4-0.3-1.4-1-2.8-2.2c-4.9-4.2-7.5-8-7.7-7.9
		c-0.1,0.1,2.1,3.6,2.3,3.4c0.3-0.1-1.2-4.3-4.4-7.7c-2.3-2.4-5.4-4.4-6.3-3.7c-0.7,0.5,0.5,2.1-0.2,2.9c-0.9,1-3.7-0.9-9.3-2.3
		c-3.1-0.8-4.8-0.9-6.2-0.9c-2,0-4.1,0.1-5.6,1.4c-1.9,1.8-1.5,4.9-1.9,4.9C97.8,32.8,97,30.4,97.9,28.4z"/>
	<path class="st9" d="M96.3,29c-0.1,0.8,0,1.8,0.1,2.9c0.3,2.1,1,3.8,1.6,4.9"/>
	<path class="st20" d="M97.2,29.5c1-0.8,2.5-1.8,4.5-2.7c1.1-0.5,2-0.9,3.1-1c1.8-0.2,3.1,0.4,5.3,1.4c2.8,1.2,5.2,2.2,6.2,2.5
		c5.1,2,5.5,1.2,7.3,2.7c1.8,1.4,1.4,2,4.5,6.1c2.9,3.7,3.6,3.8,5.9,7c1.4,2,1.4,2.3,4.1,7c5.5,9.5,5.9,8.4,7.1,11.9
		c1.3,3.5,1.3,5.6,3.4,10c0.8,1.8,1.4,2.6,2.1,3.9c1.5,2.7,3.4,6.9,5,12.9"/>
	<path class="st28" d="M118.7,83.1c0.2,0.6,0.9,1.1,4.9,1.8c1.6,0.3,2.4,0.4,3.4,0.5c2.3,0.2,4.4,0.4,6.9-0.3c1.6-0.4,2.6-1,3.4-1.5
		c1-0.6,1.5-0.9,1.8-1.4c0.9-1.6-0.3-3.8-0.5-4.2c-1.1-1.9-2.8-2.8-5.3-4c-2.4-1.2-3.8-1.8-5.8-1.7c-1.8,0.2-3.3,1-3.9,1.4
		c-0.9,0.6-1.8,1.1-2.5,2.2c-0.4,0.6-0.3,0.7-1.2,2.5c-0.2,0.4-0.5,0.9-0.8,1.6c-0.2,0.5-0.4,0.9-0.5,1.4
		C118.7,82.1,118.6,82.7,118.7,83.1z"/>
	<path class="st29" d="M125.6,98.9c0.7,1.2,1.3,2.2,1.9,2.9c1.3,1.6,2,2.5,3.2,3.1c0.6,0.3,1.1,0.4,1.8,1c0.6,0.4,1.2,0.9,1.3,1.6
		c0.2,0.9-0.4,1.6-1.2,2.9c-1.3,2-0.8,2.1-2,4.2c-0.7,1.2-1.7,2.8-3.4,4.4"/>
	<path class="st30" d="M49.8,178c4.5-11.8,2.3-22,7.3-30.2c0.6-1,1.7-2.7,3.1-2.6c1.8,0.1,1.9,3.2,5.2,5.8c1.9,1.5,2.6,1.3,4.2,2.4
		c5.4,3.8,5.3,12.6,5.7,12.5c0.4-0.1-1.1-9.7,0.2-10.1c0.7-0.2,2,2.2,2.8,4c1.1,2.8,0.7,4.2,1.2,6c1.4,5,8.1,7.8,9,6.9
		c1.1-1.1-6.5-6.8-4.8-12.7c0.7-2.4,2.4-3.3,3-6.9c0.3-1.9,0.1-3.5-0.2-5.1c-0.5-3.5-1.9-6.5-2.7-8.5c-0.5-1.2-1-1.9-1.4-3.3
		c-0.4-1.4-0.3-2-0.8-3.7c-0.3-0.8-0.5-1.6-1-2.5c-0.8-1.5-1.9-2.6-2-2.7c-0.8-0.8-1.2-1-1.7-1.9c-0.3-0.5-0.2-0.6-0.6-1.2
		c-0.4-0.7-0.6-0.8-1-1.4c-0.9-1.4-0.8-2.2-1.6-2.5c-0.3-0.1-0.3,0-0.8-0.1c-1.1-0.3-1.6-1.2-1.9-1.4c-2-1.5-26.3,17.7-23.5,31.4
		c0.1,0.4,0.7,2.3,0.8,4.8c0.1,3-0.4,5.3-0.6,5.9c-0.1,0.4-0.6,2.4-2,4.8c-1.5,2.6-2.4,2.9-3.3,4.5c-2.1,4-0.3,9.2,0.4,9.2
		c0.9,0,1.3-9.7,1.9-9.7c0.2,0,0.2,0.7,0.4,1.8c0.5,2.1,1.4,3.5,1.7,4.1c1.8,3.7-1.8,10.1-1.4,10.3C45.6,186,47.8,183.2,49.8,178z"
		/>
	<path class="st31" d="M157.9,123.4c-0.9,3.3-4.8,4.1-6.6,6.9c-0.2,0.3-0.3,0.9-0.7,1.5c-0.8,1.1-1.6,1.2-1.9,2
		c-0.2,0.7,0.3,1,0.2,1.7c-0.1,1.5-2.3,1.9-3.4,3.3c-1.7,2.1-0.9,6.2,0.7,8.7c0.8,1.2,2,1.8,4.3,3.1c0.3,0.1,1.2,0.7,2.7,1.4
		c3.3,1.5,4.9,2.3,6.7,1.8c1-0.3,0.9-0.8,2.5-1.4c1.9-0.8,3.6-0.9,5-0.9c1.9,0,2.9,0,3.8,0.5c0.5,0.3,1.6,1.1,2.5,4.1
		c1.3,4.3,0.6,8,0.5,8.7c-0.7,3.8-1.9,3.6-2.1,6.6c-0.2,2.3,0.5,2.6,1.3,7.8c0.6,3.9,0.5,5.7,1.1,5.8c0.9,0.1,2.1-3.3,2.2-3.8
		c0.6-1.7,0.8-3.1,0.8-3.7c0.4-3.7-0.6-4.8-0.2-7c0.8-4.9,3.9-5.2,4.3-9.7c0.3-2.8-0.7-5.1-1.5-7c-1-2.4-2.2-5.1-4.7-6.6
		c-4.3-2.5-7.9,1-11.7-1.5c-2.7-1.8-4-5.8-3-7.1c0.9-1.1,3.3-0.5,4-0.4c2,0.4,2.7,1.4,5.5,2c0.7,0.1,0.6,0.1,1.3,0.2
		c1.1,0.2,2.8,0.7,4.5,1.9c1.8,1.2,1.8,2.1,3.3,3.6c3.4,3.5,8.1,4.4,8.1,4.4c0,0-0.3-0.1-0.9-0.4c0,0-2-1-3.7-2.4
		c-4.3-3.9-7.7-14.7-7.7-14.7c-2-6.3-1.4-5.2-3.8-13.1c-3.6-11.8-4.4-12.5-4.5-16c-0.1-1.5,0-3.8-1.2-6.4c-0.7-1.5-1.2-1.9-2.2-4.2
		c-1.2-2.6-1.3-3.9-1.7-3.9c-0.6,0-1.5,2.9-1.4,6c0.1,5.2,2.6,7,1.5,10.3c-0.5,1.6-1.1,1.2-2.2,3.4c-0.4,0.9-1.3,2.8-1.6,7.6
		c-0.1,1,0,1.3-0.1,4C157.9,122.3,157.9,123.3,157.9,123.4z"/>
	<path class="st9" d="M168.6,137.4"/>
	<path class="st9" d="M171.3,134.8"/>
	<path class="st32" d="M162.2,109.3"/>
	<path class="st33" d="M152.6,152.8"/>
	<path class="st32" d="M170.9,139.9"/>
	<path class="st33" d="M153.8,153.3"/>
	<path class="st32" d="M146.6,50.4"/>
</g>
<g>
	<path class="st10" d="M86,45.3c-1.4,1.4-1.4,3.4-1.5,4.4c-0.5,5-4.7,5.3-7.1,10.4c-0.5,1.1-0.8,3.8-1.5,9.2
		c-0.8,6.4-1.1,11.2-1.3,13.5c-0.3,5.6-0.5,8.4-0.2,11.6c0.2,1.4,0.1,0.6,1.1,6.8c0.6,4,0.7,4.8,1.4,6c1,1.6,1.6,1.4,4.3,4.1
		c2.4,2.4,3,3.7,3.7,3.5c0.9-0.3,0.4-2.7,1.5-6c0.7-2.1,1.8-3.6,2.7-4.6c0,0,0,0,0-0.1c0.4-3.3-3-7.3-3-7.3l0,0
		c-4.9-3.7-6.1-18-6.7-17.9c-0.3,0-0.4,2.9-0.3,2.9c0.2,0-0.4-5.5,2.5-10.2c2.1-3.4,4-2.9,8.8-8.2c2.3-2.5,3.4-3.7,4.3-5.7
		c1.8-3.9,0.6-5.8,2.3-11.7c1.1-3.7,2.3-5.3,1.6-5.9c-0.9-0.8-3,1.9-8.6,3.4C88.3,44.1,87.1,44.2,86,45.3z"/>
	<path class="st1" d="M88.6,39.8c-0.5-0.2-2.7-1-4.8,0.1c-1.2,0.6-1.8,1.6-2.2,2.3c-0.5,0.9-0.5,1.2-1.6,5c-0.6,2.3-0.8,2.8-0.8,3.8
		c0,1.4,0.4,1.5,0.3,2.7c-0.1,1.4-0.7,2.4-1.9,4.3c-0.8,1.3-1.5,2.4-2.8,3.7c-1.7,1.7-3.5,3.5-6.1,4c-2.5,0.4-3.2-0.3-5.4-0.1
		c-2,0.2-4.7,1.3-7.7,5.1"/>
	<path class="st1" d="M83.4,45.8c0-0.6,0.2-1.6,0.9-2.4c0.7-0.8,1.6-1,2.9-1.2c3.9-0.8,5.8-0.8,5.8-1.1c0-0.2-0.8-0.5-4.4-1.2"/>
	<path class="st11" d="M79.1,57.2c0.3,0,0.4-0.8,1.7-2.9c1.1-1.7,2.3-3,2.9-3.6c1.8-1.8,2.3-2,2.5-2.9c0.3-1.5-0.8-2.8-0.4-3.1
		c0.4-0.3,1.4,0.9,2.1,0.5c0.5-0.2,0.4-0.9,0.7-1.7c0.7-2.2,3.1-2.5,3-3.2c-0.2-1-5.5-2.4-8.6,0.1c-0.8,0.6-1.4,1.5-2.3,4.2
		C78.7,50.7,78.3,57.1,79.1,57.2z"/>
	<path class="st11" d="M65.8,69.7c-0.9,2.5,0.8,3.7,0.9,7.1c0.1,1.8-0.4,2.9-3.2,9c-4.1,8.7-4,8-4.2,8.9c-1.2,5.3,4.7,15.7,4.7,15.7
		c6.1,10.3,6.6,13.1,7.1,15c1.1,4.1,1.7,6.2,0.9,8.9c-1.2,4.1-2.4,5.1-1.6,6.7c1.1,2.1,4.9,0.6,6.6,2.8c1.7,2.2-1.1,4.8,0.7,8.2
		c1.2,2.4,3.9,3.9,4.9,3.3c0.7-0.4,0.4-2.1,0.9-2.2c0.4-0.1,1,1.4,1.2,1.8c0.5,1.1,0.5,2,0.7,2c0.3,0,0.6-1.6,0.6-1.8
		c0.5-3,0.2-5.5,0.2-5.7c-0.4-3.4-1.4-6-2.3-8.6c-0.9-2.5-1.1-2.2-1.5-3.7c-1-3.3-0.5-4.6-1.5-6.5c-0.1-0.2-0.3-0.5-0.7-1
		c-1.2-1.7-1.8-2.3-2.4-3.2c-0.8-1.2-0.5-1.2-1.4-2.9c-1.5-2.7-2.4-3.1-3.3-5.4c-0.2-0.6-0.4-1-0.5-1.7c-0.3-1.3-0.3-2.2-1.1-3.5
		c-0.2-0.3-0.1-0.2-0.7-1c-1-1.4-1.1-1.8-1.7-2.6c-1.3-1.8-2.3-1.8-2.3-2.7c0-0.5,0.4-0.9,1-1.6c0.4-0.4,1-1.1,1.9-1.3
		c1.4-0.4,2.6,0.3,3.4,0.7c1.6,0.8,2.2,1.9,2.6,1.7c0.3-0.2,0.1-1.2-0.2-2.4c-0.7-3.3-1.2-5.5-1.3-6.3c-0.3-1.9-0.6-3.2-0.4-5
		c0.2-2.2,0.7-2.3,1-4.4c0.3-2.4-0.4-2.7-0.5-6.1c-0.1-1.9,0.1-3.4,0.4-5.8c0.2-1.4,0.4-2.9,0.9-5.9c0.5-3.1,0.8-4.6,1.1-5.7
		c0.7-2.7,1.4-4.3,1.1-4.5s-0.8,1.7-2.7,3.1s-2.8,1-5.1,2.3C68.9,66.1,66.6,67.4,65.8,69.7z"/>
	<path class="st11" d="M47.8,56.1"/>
	<path class="st34" d="M59.8,81.8c0-3.3-0.1-5.6-0.1-5.6c-0.2-3-0.5-4.1,0.3-5.3c0.4-0.6,1.4-1.1,3.3-2.1c1.9-1,2.8-1.5,3.7-1.5
		c1.5-0.1,1.7,0.5,3.6,0.5c0.3,0,0.8-0.1,1,0.2c0.1,0.3-0.1,0.6-0.7,1.6c-0.3,0.5-0.5,1-0.8,1.4c-1.2,1.9,0.4,5.7-1,9.6
		c-0.2,0.4-0.6,1.2-1.4,2.7c-1.5,2.8-1.9,3-2.9,5.1c-1,1.9-0.8,2-1.7,3.8c-0.8,1.5-1.2,1.8-1.8,3.1c-0.5,0.8-1.3,2.2-1.6,4
		c-0.9,5.3,3,8.5,5,13.7c2.7,6.9,0.6,13.7-1.2,19.7c-2.8,9.1-8.2,16.1-8.9,15.8c-0.5-0.2,1-4.3,0.6-4.5c-0.2-0.1-0.5,0.8-1.5,1.9
		c-1.3,1.5-2,1.4-2.3,2.4c-0.1,0.2-0.1,0.2,0.1,2.6c0.1,1.3,0.1,1.9,0.1,2.3c-0.1,1-0.3,1.2-0.3,2.3c-0.1,1,0,1.7,0.1,1.9
		c0.3,2.6-2.2,8.8-3,13c-1.1,5.6,0.4,9.4,0,9.4c-0.5,0.1-3-5.4-1.8-9.8c0.1-0.5,0.4-1.4,0.2-2.4c-0.4-1.8-2.3-2.3-2.9-3.6
		c-1.2-2.5-0.5-4.1-0.1-9.7c0.2-2.3,0.2-5.7,0.3-12.4c0.1-3.9,0-4.9-0.1-6.1c-0.3-2.5-0.7-3.3-0.5-5.1c0.1-0.8,0.2-1.9,1.6-5.1
		c1.2-2.8,1.5-3.1,3.9-8c1.2-2.5,1.8-3.6,2.9-5.5c0.9-1.5,1.4-2.2,2-3c1.3-1.6,2.3-2.2,3.1-3.9c0.1-0.3,0.4-0.9,0.6-1.7
		c0.4-1.7,0.2-2.7,0.2-4.6c0-0.5,0.1-1.5,0.2-3.6C58.5,88.5,59.8,87,59.8,81.8z"/>
	<path class="st11" d="M72.9,118.9"/>
	<path class="st35" d="M220.6,119.7c284-0.7,568-1.3,852-2"/>
	<path class="st36" d="M274.3,180.1c-1,0.1-2.5,0.2-4.3,0c-2.5-0.3-4.3-0.4-5.8-1.5c-2.6-1.9-3-5.4-3.1-6.9c-0.1-1-0.4-4.1,1.3-6.9
		c2.2-3.6,6.8-5.5,11.8-4.9c45.8,1.3,78.1,0.3,99.4,0.3c23.8,0.1,43,0.2,71.4,0.1c6.6,0.3,13.4,0.6,20.1,0.9
		c10.5,0.5,13.3,14.8,3.7,19.2l0,0c-1.4,0.6-2.9,0.9-4.4,0.9l-57.7-0.9c-33.3-0.9-17.7,0.1,0,0c-66.2,0.2-148.8-0.5-148.8-0.5"/>
	<path class="st37" d="M515.1,199.2L515.1,199.2L515.1,199.2z"/>
	<path class="st31" d="M86.9,29.1c-0.7,0.5-1.7,1.2-2.8,2.2c-2.6,2.4-2.8,3.9-5.7,7.8c-0.7,1-1.9,2.3-4.2,5.1
		c-1.2,1.4-2.3,2.7-3.9,4.7c-2,2.5-2.5,3.3-2.8,3.8c-1.1,2-0.9,2.7-1.8,4.4c-1,2-2.1,3.1-3.6,4.7c-2.9,3.2-5.8,5.8-6.6,8.8
		c-1,3.5,0.3,4.8,1,11.4c1,9.6-0.7,15.8,1.1,16.3c0.7,0.2,1.4-0.5,2.6-1.7c3.1-3.1,3.5-5.8,6.1-11.5c2.4-5.4,2.9-4.8,3.1-6.7
		c0.4-3.9-1.6-6.8,0.1-9c0.8-1,2.1-1.3,2-1.8c-0.2-0.8-3.4-0.4-3.6-1.1c-0.2-0.7,2.7-1.5,5.6-3.8c1-0.8,3.8-3,5.1-6.7
		c0.3-1,0.5-3.1,0.8-7.3c0.3-3.9,0.2-4.9,1-6.6c0.4-0.8,1.4-2.8,3.6-3.7c1.4-0.6,2.6-0.5,4-0.3c3.4,0.3,4.1,1.6,7.2,1.8
		c1.4,0.1,3.2,0.2,4.2-1c1.5-1.6,0.8-4.8,0.2-4.9c-0.7-0.1-1.3,2.6-2.2,2.5c-0.8-0.1-1.1-2.5-1.3-4.2c-0.3-2.1,0-3.1,0.1-3.4
		c0.2-0.7,0.4-0.8,0.5-1.3c0.2-1.6-1.5-3.4-2.2-3.2c-0.5,0.2-0.2,1.1-0.9,2.1c-0.8,1.1-2.3,1.4-3.6,1.5"/>
	<g>
		<g>
			<path class="st38" d="M252.7,79.2h14.6c8,0,12.4,4.3,12.4,10.3c0,5-3,8.2-6.5,9.2c3,0.8,8,3.8,8,10.4c0,8.4-6.3,12.1-13.6,12.1
				h-14.9V79.2z M266.3,97.3c7.3,0,10-2.7,10-7.6c0-4.1-2.9-7.5-8.8-7.5h-11.6v15.1H266.3z M255.9,118.2h11.8
				c5.5,0,10.1-2.8,10.1-8.9c0-5.3-3.4-9-11.9-9h-10.1L255.9,118.2L255.9,118.2z"/>
			<path class="st39" d="M294.6,106.7l-5.3,14.5H286l15.4-42h3.8l16.1,42h-3.5l-5.5-14.5H294.6z M311.3,103.7
				c-4.7-12.5-7.1-18.5-7.9-21.3h-0.1c-1,3.2-3.7,10.6-7.5,21.3H311.3z"/>
			<path class="st38" d="M332.1,101.6v19.6h-3.3v-42h15.1c8.3,0,12.7,4.4,12.7,11c0,5.3-3.2,8.8-7.9,9.8c4.3,1,7.2,3.8,7.2,11v1.6
				c0,2.9-0.2,6.9,0.5,8.5h-3.3c-0.8-1.8-0.6-5.2-0.6-8.8v-1.1c0-6.9-2-9.8-10.1-9.8H332.1z M332.1,98.6h10.1
				c7.4,0,10.8-2.8,10.8-8.3c0-5.2-3.4-8.1-9.9-8.1h-11V98.6z"/>
			<path class="st40" d="M366.5,121.2v-42h4.8c6.5,10.1,21.9,33.5,24.5,38.1h0.1c-0.4-6.1-0.3-12.2-0.3-19.1v-19h3.3v42h-4.4
				c-6.2-9.7-21.8-34.1-24.8-38.8h-0.1c0.3,5.5,0.2,11.6,0.2,19.3v19.5H366.5z"/>
			<path class="st41" d="M421.2,121.2l-15.6-42h3.5l8.2,22c2.3,6.4,5,13.4,5.9,16.9h0.1c0.9-3.1,3.8-10.5,6.1-16.7l8.5-22.2h3.4
				l-16.2,42C425,121.2,421.2,121.2,421.2,121.2z"/>
			<path class="st38" d="M452.2,106.7l-5.3,14.5h-3.3l15.4-42h3.8l16.1,42h-3.5l-5.5-14.5H452.2z M468.9,103.7
				c-4.7-12.5-7.1-18.5-7.9-21.3h-0.1c-1,3.2-3.7,10.6-7.5,21.3H468.9z"/>
			<path class="st38" d="M486.4,79.2h3.2v21.8c3.4-3.2,15.4-14.5,22.9-21.8h4.3L498,97.1l19.9,24.1h-4l-18.2-22l-6,5.3v16.7h-3.2
				V79.2z"/>
			<path class="st42" d="M531.8,82.2h-14.1v-3h31.6v3h-14.2v39h-3.3V82.2z"/>
			<path class="st38" d="M580.2,100.6h-21.4v17.6h23.5l-0.5,3h-26.2v-42h25.7v3h-22.5v15.4h21.4V100.6z"/>
			<path class="st43" d="M590.5,121.2l0-42h4.8c6.5,10.1,21.9,33.5,24.5,38.1h0.1c-0.4-6.1-0.3-12.2-0.3-19.1v-19h3.3v42h-4.4
				c-6.2-9.7-21.8-34.1-24.8-38.8h-0.1c0.3,5.5,0.2,11.6,0.2,19.3v19.5H590.5z"/>
		</g>
	</g>
	<line class="st44" x1="237.8" y1="134.2" x2="742.7" y2="134.2"/>
</g>
<g id="Hr">
	<path d="M94.5,79.5c-0.2,0.3-0.2,0.7,0.1,1c0.3,0.3,0.7,0.2,0.9,0c0.2-0.2,0.4-0.6,0.3-0.9c-0.2-0.4-0.6-0.4-0.8-0.4
		C94.9,79.2,94.6,79.3,94.5,79.5z"/>
</g>
<path class="st17" d="M95.7,78.6"/>
<path class="st17" d="M110.9,68.1"/>
<path class="st5" d="M86,78.7"/>
</svg>
